<?xml version="1.0" encoding="UTF-8"?>
<svg width="9px" height="16px" viewBox="0 0 9 16" version="1.1" xmlns="http://www.w3.org/2000/svg" xmlns:xlink="http://www.w3.org/1999/xlink">
    <!-- Generator: sketchtool 42 (36781) - http://www.bohemiancoding.com/sketch -->
    <title>34433BC3-98B2-44FF-8BCB-F4A0EE9B9B98</title>
    <desc>Created with sketchtool.</desc>
    <defs></defs>
    <g id="Page-1-Copy" stroke="none" stroke-width="1" fill="none" fill-rule="evenodd">
        <g id="list---login-modal" transform="translate(-58.000000, -376.000000)" fill="#FFFFFF">
            <g id="modal">
                <g transform="translate(20.000000, 134.000000)" id="bt-/-fb">
                    <g transform="translate(20.000000, 229.000000)">
                        <g id="buttom">
                            <g id="bt-facebook" transform="translate(18.000000, 13.000000)">
                                <path d="M1.758,5.26019302 L1.758,3.66231356 C1.758,2.95733924 1.777,1.8708934 2.325,1.19770837 C2.901,0.48431923 3.693,0 5.054,0 C7.272,0 8.206,0.29545343 8.206,0.29545343 L7.767,2.73200925 C7.767,2.73200925 7.034,2.53285867 6.35,2.53285867 C5.667,2.53285867 5.054,2.76286356 5.054,3.40145436 L5.054,5.26019302 L7.858,5.26019302 L7.663,7.63971511 L5.054,7.63971511 L5.054,15.9049313 L1.758,15.9049313 L1.758,7.63971511 L0,7.63971511 L0,5.26019302 L1.758,5.26019302 Z" id="Imported-Layers"></path>
                            </g>
                        </g>
                    </g>
                </g>
            </g>
        </g>
    </g>
</svg>