<svg xmlns="http://www.w3.org/2000/svg" width="250" height="250" viewBox="0 0 250 250">
    <g fill="none" fill-rule="evenodd">
        <path fill="#73C7EE" d="M114.32 59.926L95.703 64.13V52.848s11.419-6.107 18.615.688v6.39zM83.828 41.882l-23.13 3.204V33.803s14.802-6.106 24.13.689l-1 7.39z"/>
        <path fill="#36F3BD" d="M43.485 182.691v49.068h34.81"/>
        <path stroke="#004D78" stroke-linecap="round" stroke-linejoin="round" stroke-width="2" d="M43.485 182.691v49.068h34.81M97.244 45.447v65.719l19.643-7.85V45.84s-8.674-7.872-19.643-.392z"/>
        <path stroke="#004D78" stroke-linecap="round" stroke-linejoin="round" stroke-width="2" d="M97.244 53.144v65.72l19.643-7.85V53.536s-8.674-7.872-19.643-.392z"/>
        <path fill="#004D78" d="M97.244 59.534v65.72l19.643-7.85V59.926s-8.674-7.871-19.643-.392"/>
        <path stroke="#004973" stroke-width="3" d="M97.244 59.534v65.72l19.643-7.85V59.926s-8.674-7.871-19.643-.392z"/>
        <path stroke="#004D78" stroke-linecap="round" stroke-linejoin="round" stroke-width="2" d="M59.58 25.476v80.73l24.13-9.643V25.958s-10.656-9.67-24.13-.482z"/>
        <path stroke="#004D78" stroke-linecap="round" stroke-linejoin="round" stroke-width="2" d="M59.58 34.932v80.729l24.13-9.643V35.413s-10.656-9.67-24.13-.481z"/>
        <path fill="#004D78" d="M59.58 42.782v80.729l24.13-9.643V43.263s-10.656-9.67-24.13-.481"/>
        <path stroke="#004973" stroke-width="3" d="M59.58 42.782v80.729l24.13-9.643V43.263s-10.656-9.67-24.13-.481z"/>
        <path fill="#004D78" d="M204.058 121.455l-25.768 6.377 27.265 37.63zM167.751 113.772l-37.329 11.86 36.206 33.087z"/>
        <path stroke="#004D78" stroke-linecap="round" stroke-linejoin="round" stroke-width="2" d="M130.422 65.86v59.772l17.866-7.139V66.217s-7.89-7.16-17.866-.356z"/>
        <path fill="#73C7EE" d="M150.114 82.425l-17.448 1.186V72.328s9.845-4.78 17.042 2.015l.406 8.082z"/>
        <path stroke="#004D78" stroke-linecap="round" stroke-linejoin="round" stroke-width="2" d="M130.422 72.861v59.772l17.866-7.14V73.219s-7.89-7.16-17.866-.357z"/>
        <path fill="#004D78" d="M130.422 78.673v59.772l17.866-7.14V79.03s-7.89-7.16-17.866-.357"/>
        <g fill="#E2FEF6" transform="translate(159 43)">
            <ellipse cx="27.719" cy="36.734" rx="15.222" ry="15.175"/>
            <ellipse cx="39.719" cy="32.734" rx="15.222" ry="15.175"/>
            <ellipse cx="15.222" cy="24.514" rx="15.222" ry="15.175"/>
            <ellipse cx="33.968" cy="15.175" rx="15.222" ry="15.175"/>
            <ellipse cx="51.673" cy="27.627" rx="15.222" ry="15.175"/>
        </g>
        <g fill="#E2FEF6" transform="matrix(-1 0 0 1 135 5)">
            <ellipse cx="16.651" cy="27.831" rx="7.512" ry="7.488"/>
            <ellipse cx="27.863" cy="25.067" rx="10.678" ry="10.645"/>
            <ellipse cx="10.678" cy="19.301" rx="10.678" ry="10.645"/>
            <ellipse cx="27.514" cy="10.645" rx="10.678" ry="10.645"/>
            <ellipse cx="16.991" cy="14.152" rx="10.678" ry="10.645"/>
            <ellipse cx="36.248" cy="21.485" rx="10.678" ry="10.645"/>
        </g>
        <g fill="#F0FFF6" transform="matrix(-1 0 0 1 154.565 42.721)">
            <ellipse cx="8.857" cy="14.689" rx="3.995" ry="3.952"/>
            <ellipse cx="14.821" cy="13.23" rx="5.68" ry="5.618"/>
            <ellipse cx="5.68" cy="10.187" rx="5.68" ry="5.618"/>
            <ellipse cx="14.635" cy="5.618" rx="5.68" ry="5.618"/>
            <ellipse cx="9.038" cy="7.469" rx="5.68" ry="5.618"/>
            <ellipse cx="19.281" cy="11.339" rx="5.68" ry="5.618"/>
        </g>
        <path fill="#FFF" d="M205.555 165.462l-1.497-44.007 7.486 14.79v95.514h-87.21V98.79l42.294 59.93 1.123-44.947z"/>
        <path stroke="#004D78" stroke-linecap="round" stroke-linejoin="round" stroke-width="2" d="M205.555 165.462l-1.497-44.007 7.486 14.79v95.514h-87.21V98.79l42.294 59.93 1.123-44.947z"/>
        <path fill="#004D78" d="M24.77 231.76v7.024l99.563 2.056v-9.08z"/>
        <path stroke="#004973" stroke-width="3" d="M24.77 231.76v7.024l99.563 2.056v-9.08H24.77"/>
        <path fill="#FFF" d="M25.143 135.606l99.19-36.816v132.97H24.77z"/>
        <path stroke="#004D78" stroke-linecap="round" stroke-linejoin="round" stroke-width="2" d="M25.143 135.606l99.19-36.816v132.97H24.77z"/>
        <path fill="#73C7EE" d="M95.154 223.007h15.814v-21.1H95.154zM78.021 161.752l-31.066 4.665.513-12.817 30.553-5.224zM154.565 219.92l-13.198.438.513-16.887 12.685-.063zM177.515 216.49l-11.656.388.453-14.915 11.203-.055zM203.452 219.129l-10.453.347.407-13.374 10.046-.05zM203.452 197.568l-10.453-.681.407-14.916 10.046 3.033zM178.46 191.818l-13.721-.895.533-16.66 13.187 3.07zM154.574 194.427l-13.207-1.028.514-19.136 12.693 3.527z"/>
        <path fill="#36F399" d="M82.057 231.245H46.351v-42.384l35.706-8.364z"/>
        <path fill="#73C7EE" d="M111.517 193.345l-15.813 2.056v-19.558l15.813-3.598z"/>
        <path stroke="#004973" stroke-width="2" d="M43.485 182.691v49.068h34.81v-54.686z"/>
        <path stroke="#004D78" stroke-linecap="round" stroke-linejoin="round" stroke-width="2" d="M74.552 183.823l-27.597 4.184v42.82M202.068 183.023v13.018l-11.043-.71v-14.842l11.22 1.877M202.068 206.552v11.99l-11.043.317v-14.327l9.165.849M180.345 178.785v14.859l-13.3-.784v-16.3l13.3 2.739M180.345 218.542v-14.345l-2.069-.262-11.23-.936v15.788l10.982-.203M152.685 203.455v15.087l-13.299.092v-18.867l13.285 1.632M152.685 174.13v17.657l-13.299-.936.514-19.38 12.785 2.66M93.254 202.905v17.825l15.749.11v-22.342l-17.408 1.838M93.254 173.486v18.339l15.749-1.433V170.62l-13.3 2.866M43.485 156.116v10.493l34.81-7.164v-15.987l-34.509 9.97"/>
        <path fill="#004D78" d="M125.177 231.76v9.08l86.683-1.542v-7.539z"/>
        <path stroke="#004973" stroke-width="3" d="M125.177 231.76v9.08l86.683-1.542v-7.539h-86.683"/>
        <path stroke="#FFF" stroke-opacity=".01" d="M.5.5h249v249H.5z"/>
    </g>
</svg>
