<svg xmlns="http://www.w3.org/2000/svg" width="321" height="250" viewBox="0 0 321 250">
    <g fill="none" fill-rule="evenodd">
        <g opacity=".15">
            <path fill="#73C7EE" d="M196.19 49.662c-3.582-14.089-24.442-24.902-49.647-24.902s-46.066 10.813-49.647 24.902H65.88v24.306h157.97V49.662h-27.66z"/>
            <path stroke="#004D78" stroke-linecap="round" stroke-linejoin="round" stroke-width="2" d="M196.19 49.662c-3.582-14.089-24.442-24.902-49.647-24.902s-46.066 10.813-49.647 24.902H65.88v24.306h157.97V49.662h-27.66z"/>
            <path fill="#FFF" d="M117.114 58.928c.973.6 2.397 1.1 3.895 1.1 2.222 0 3.52-1.175 3.52-2.876 0-1.574-.899-2.474-3.17-3.35-2.747-.974-4.445-2.399-4.445-4.774 0-2.625 2.173-4.576 5.444-4.576 1.723 0 2.971.4 3.72.825l-.6 1.776c-.548-.3-1.672-.8-3.195-.8-2.297 0-3.172 1.374-3.172 2.525 0 1.574 1.024 2.35 3.346 3.25 2.847 1.1 4.295 2.475 4.295 4.95 0 2.6-1.923 4.85-5.893 4.85-1.623 0-3.396-.475-4.294-1.075l.549-1.825zM133.395 44.727v7.05h8.14v-7.05h2.197v16.85h-2.197v-7.9h-8.14v7.9h-2.172v-16.85zM150.326 53.252c0 3.6 1.947 6.826 5.367 6.826 3.447 0 5.394-3.175 5.394-7 0-3.35-1.748-6.85-5.369-6.85-3.595 0-5.392 3.325-5.392 7.024m13.058-.275c0 5.801-3.52 8.876-7.815 8.876-4.445 0-7.566-3.45-7.566-8.55 0-5.35 3.321-8.851 7.816-8.851 4.593 0 7.565 3.525 7.565 8.525M169.877 53.053c.476.124 1.074.174 1.798.174 2.622 0 4.22-1.275 4.22-3.6 0-2.224-1.573-3.3-3.97-3.3-.948 0-1.673.075-2.048.175v6.55zm-2.171-8.126a25.16 25.16 0 0 1 4.169-.324c2.147 0 3.72.5 4.72 1.4.923.8 1.473 2.025 1.473 3.524 0 1.526-.45 2.726-1.3 3.6-1.147 1.226-3.02 1.85-5.143 1.85-.648 0-1.248-.024-1.748-.15v6.75h-2.171v-16.65z"/>
            <path fill="#36F3BD" d="M39.876 206.9V236h206.557v-29.1z"/>
            <path stroke="#004D78" stroke-linecap="round" stroke-linejoin="round" stroke-width="2" d="M39.876 236h206.557v-29.1H39.876z"/>
            <path fill="#FFF" d="M246.433 120.084V206.9H39.876v-86.817"/>
            <path stroke="#004D78" stroke-linecap="round" stroke-linejoin="round" stroke-width="2" d="M246.433 120.084V206.9H39.876v-86.817"/>
            <path fill="#73C7EE" d="M130.968 205.395h27.237v-62.472h-27.237z"/>
            <path fill="#36F3BD" d="M51.105 198.489h15.522v-40.707H51.105zM75.03 196.108h15.523v-40.706H75.03zM95.791 198.489h15.522v-40.707H95.791zM197.402 192.59h15.522v-40.707h-15.522zM174.775 199.743h16.764V156.53h-16.764zM217.467 198.399h19.975v-43.215h-19.975z"/>
            <path stroke="#004D78" stroke-linecap="round" stroke-linejoin="round" stroke-width="2" d="M124.27 206.9v-71.58h38.874v69.86M233.596 135.32v61.668h-54.713V138.67h50.766M53.805 135.32v61.668h54.713V138.67H57.752"/>
            <path fill="#73C7EE" d="M145.385 84.918l-.759 42.446s-3.16 4.897-10.558 4.538c-5.255-.255-7.367-6.219-7.367-6.219l.678-23.1 6.689-17.665h11.317z"/>
            <path stroke="#004D78" stroke-linecap="round" stroke-linejoin="round" stroke-width="2" d="M145.385 84.918l-.759 42.446s-3.16 4.897-10.558 4.538c-5.255-.255-7.367-6.219-7.367-6.219l.678-23.1 6.689-17.665h11.317z"/>
            <path fill="#FFF" d="M145.385 84.918v42.446s3.16 4.897 10.559 4.538c5.254-.255 7.367-6.219 7.367-6.219l-.678-23.1-6.69-17.665h-10.558z"/>
            <path stroke="#004D78" stroke-linecap="round" stroke-linejoin="round" stroke-width="2" d="M145.385 84.918v42.446s3.16 4.897 10.559 4.538c5.254-.255 7.367-6.219 7.367-6.219l-.678-23.1-6.69-17.665h-10.558z"/>
            <path fill="#73C7EE" d="M155.944 84.918h15.849l9.758 19.363v22.082s-2.972 6.662-10.097 5.54c-7.125-1.124-8.143-6.22-8.143-6.22l-.678-23.1-6.689-17.665z"/>
            <path stroke="#004D78" stroke-linecap="round" stroke-linejoin="round" stroke-width="2" d="M155.944 84.918h15.849l9.758 19.363v22.082s-2.972 6.662-10.097 5.54c-7.125-1.124-8.143-6.22-8.143-6.22l-.678-23.1-6.689-17.665z"/>
            <path fill="#36F3BD" d="M58.866 84.918h171.999V74.001h-172z"/>
            <path stroke="#004D78" stroke-linecap="round" stroke-linejoin="round" stroke-width="2" d="M58.866 84.918h171.999V74.001h-172z"/>
            <path fill="#FFF" d="M187.916 84.918h-15.768l9.403 19.363v22.082s3.473 6.584 10.26 5.84c6.784-.745 9.16-6.18 9.16-6.18v-22.76l-13.055-18.345"/>
            <path stroke="#004D78" stroke-linecap="round" stroke-linejoin="round" stroke-width="2" d="M187.916 84.918h-15.768l9.403 19.363v22.082s3.473 6.584 10.26 5.84c6.784-.745 9.16-6.18 9.16-6.18v-22.76l-13.055-18.345"/>
            <path fill="#73C7EE" d="M187.916 84.918h17.125l14.25 18.685v24.458s-1.357 5.04-9.5 4c-8.142-1.04-8.82-6.038-8.82-6.038v-22.76l-13.055-18.345z"/>
            <path stroke="#004D78" stroke-linecap="round" stroke-linejoin="round" stroke-width="2" d="M187.916 84.918h17.125l14.25 18.685v24.458s-1.357 5.04-9.5 4c-8.142-1.04-8.82-6.038-8.82-6.038v-22.76l-13.055-18.345z"/>
            <path fill="#FFF" d="M205.042 84.918h14.249l19.509 19.534v21.571s-3.224 6.794-10.349 5.775c-7.124-1.02-9.16-3.737-9.16-3.737v-24.458l-14.25-18.685z"/>
            <path stroke="#004D78" stroke-linecap="round" stroke-linejoin="round" stroke-width="2" d="M205.042 84.918h14.249l19.509 19.534v21.571s-3.224 6.794-10.349 5.775c-7.124-1.02-9.16-3.737-9.16-3.737v-24.458l-14.25-18.685z"/>
            <path fill="#73C7EE" d="M230.487 84.918l25.106 18.345v21.401s-.34 5.116-9.16 5.116c-8.821 0-7.464-7.154-7.464-7.154v-18.345L219.29 84.918h11.196z"/>
            <path stroke="#004D78" stroke-linecap="round" stroke-linejoin="round" stroke-width="2" d="M230.487 84.918l25.106 18.345v21.401s-.34 5.116-9.16 5.116c-8.821 0-7.464-7.154-7.464-7.154v-18.345L219.29 84.918h11.196z"/>
            <path fill="#FFF" d="M133.408 84.918H117.56l-9.758 19.363v22.082s2.972 6.662 10.097 5.54c7.124-1.124 8.143-6.22 8.143-6.22l.678-23.1 6.688-17.665z"/>
            <path stroke="#004D78" stroke-linecap="round" stroke-linejoin="round" stroke-width="2" d="M133.408 84.918H117.56l-9.758 19.363v22.082s2.972 6.662 10.097 5.54c7.124-1.124 8.143-6.22 8.143-6.22l.678-23.1 6.688-17.665z"/>
            <path fill="#73C7EE" d="M101.436 84.918h15.768l-9.403 19.363v22.082s-3.473 6.584-10.259 5.84c-6.785-.745-9.16-6.18-9.16-6.18v-22.76l13.054-18.345"/>
            <path stroke="#004D78" stroke-linecap="round" stroke-linejoin="round" stroke-width="2" d="M101.436 84.918h15.768l-9.403 19.363v22.082s-3.473 6.584-10.259 5.84c-6.785-.745-9.16-6.18-9.16-6.18v-22.76l13.054-18.345"/>
            <path fill="#FFF" d="M101.436 84.918H84.311l-14.25 18.685v24.458s1.358 5.04 9.5 4c8.143-1.04 8.82-6.038 8.82-6.038v-22.76l13.055-18.345z"/>
            <path stroke="#004D78" stroke-linecap="round" stroke-linejoin="round" stroke-width="2" d="M101.436 84.918H84.311l-14.25 18.685v24.458s1.358 5.04 9.5 4c8.143-1.04 8.82-6.038 8.82-6.038v-22.76l13.055-18.345z"/>
            <path fill="#73C7EE" d="M84.31 84.918H70.062l-19.508 19.534v21.571s3.223 6.794 10.348 5.775c7.125-1.02 9.16-3.737 9.16-3.737v-24.458l14.25-18.685z"/>
            <path stroke="#004D78" stroke-linecap="round" stroke-linejoin="round" stroke-width="2" d="M84.31 84.918H70.062l-19.508 19.534v21.571s3.223 6.794 10.348 5.775c7.125-1.02 9.16-3.737 9.16-3.737v-24.458l14.25-18.685z"/>
            <path fill="#FFF" d="M58.865 84.918L33.76 103.263v21.401s.34 5.116 9.16 5.116c8.822 0 7.465-7.154 7.465-7.154v-18.345l19.678-19.363H58.865z"/>
            <path stroke="#004D78" stroke-linecap="round" stroke-linejoin="round" stroke-width="2" d="M58.865 84.918L33.76 103.263v21.401s.34 5.116 9.16 5.116c8.822 0 7.465-7.154 7.465-7.154v-18.345l19.678-19.363H58.865z"/>
            <path stroke="#004973" stroke-width="2" d="M158.204 205.396v-65.59h-30.067v10.753M214.591 194.769v-42.757M194.7 194.769v-42.757M232.888 152.012h-54.005M72.81 194.769v-42.757M92.7 194.769v-42.757M54.512 152.012h54.006"/>
        </g>
        <g stroke="#37DC8D">
            <path stroke-width="30" d="M2 167h282.38"/>
            <path fill="#37DC8D" stroke-width="9" d="M283.093 141.443v50.617l30.807-26.068-26.361-21.007z"/>
        </g>
        <text fill="#FFF" font-family="Oswald-Medium, Oswald" font-size="20" font-weight="400" transform="translate(2 141)">
            <tspan x="65" y="34">sem intermediários</tspan>
        </text>
        <path stroke="#FFF" stroke-opacity=".01" d="M.5.5h319v249H.5z"/>
    </g>
</svg>
