<svg xmlns="http://www.w3.org/2000/svg" width="250" height="250" viewBox="0 0 250 250">
    <g fill="none" fill-rule="evenodd">
        <g transform="translate(-1 19)">
            <ellipse cx="126.974" cy="218.679" fill="#D1ECFF" rx="38.85" ry="3.321"/>
            <path fill="#73C7EE" d="M20.66 84.647s-6.265-3.228-1.781-9.03c0 0-6.329-2.373 1.846-10.548 0 0-2.374-3.165 2.637-8.703 0 0-.131-6.46 6.065-6.065 0 0-2.344-6.152 5.355-8.284 0 0 2.557-4.638 7.7-2.66 0 0 2.11-7.12 9.493-4.483 0 0 6.725-3.56 9.23 1.054 0 0 5.406-6.724 10.548.264 0 0 4.746-1.846 4.35 2.505 0 0 8.704 0 4.748 6.329 0 0 5.123 1.696 3.155 5.265 0 0 5.642-.159 4.935 5.2 0 0 4.567 2.192 1.27 5.49 0 0 2.243 4.087-1.054 7.383 0 0 3.745 3.482.29 6.62 0 0 4.852 3.796.633 7.225-4.22 3.428-24.764 24.814-24.764 24.814s-3.007 2.531-5.01.527c0 0-1.818 3.984-4.745 1.32 0 0-3.192 1.292-5.697-2.268 0 0-1.714 3.824-4.747.527 0 0-2.699 2.313-5.436-.69 0 0-5.244.823-7.09-2.87 0 0-6.856-.262-5.34-6.658 0 0-7.198-.875-6.79-6.526 0 0-3.165-3.692.2-5.738"/>
            <path stroke="#004D78" stroke-linecap="round" stroke-linejoin="round" stroke-width="2" d="M20.66 84.647s-6.265-3.228-1.781-9.03c0 0-6.329-2.373 1.846-10.548 0 0-2.374-3.165 2.637-8.703 0 0-.131-6.46 6.065-6.065 0 0-2.344-6.152 5.355-8.284 0 0 2.557-4.638 7.7-2.66 0 0 2.11-7.12 9.493-4.483 0 0 6.725-3.56 9.23 1.054 0 0 5.406-6.724 10.548.264 0 0 4.746-1.846 4.35 2.505 0 0 8.704 0 4.748 6.329 0 0 5.123 1.696 3.155 5.265 0 0 5.642-.159 4.935 5.2 0 0 4.567 2.192 1.27 5.49 0 0 2.243 4.087-1.054 7.383 0 0 3.745 3.482.29 6.62 0 0 4.852 3.796.633 7.225-4.22 3.428-24.764 24.814-24.764 24.814s-3.007 2.531-5.01.527c0 0-1.818 3.984-4.745 1.32 0 0-3.192 1.292-5.697-2.268 0 0-1.714 3.824-4.747.527 0 0-2.699 2.313-5.436-.69 0 0-5.244.823-7.09-2.87 0 0-6.856-.262-5.34-6.658 0 0-7.198-.875-6.79-6.526 0 0-3.165-3.692.2-5.738z"/>
            <path fill="#FFF" d="M42.859 89.696s-1.908 2.903-5.182-.211c-3.274-3.114.007-4.963.007-4.963"/>
            <path stroke="#004D78" stroke-linecap="round" stroke-linejoin="round" stroke-width="2" d="M42.859 89.696s-1.908 2.903-5.182-.211c-3.274-3.114.007-4.963.007-4.963"/>
            <path fill="#FFF" d="M66.95 53.999s1.907-2.904 5.18.211c3.275 3.114-.006 4.963-.006 4.963"/>
            <path stroke="#004D78" stroke-linecap="round" stroke-linejoin="round" stroke-width="2" d="M66.95 53.999s1.907-2.904 5.18.211c3.275 3.114-.006 4.963-.006 4.963"/>
            <path fill="#FFF" d="M87.365 81.668s-3.07-.969-9.9 5.42c-6.83 6.39-9.158 9.275-11.52 16.424-2.36 7.15 15.126 6.849 20.593-5.228 5.467-12.077.827-16.616.827-16.616"/>
            <path stroke="#004D78" stroke-linecap="round" stroke-linejoin="round" stroke-width="2" d="M87.365 81.668s-3.07-.969-9.9 5.42c-6.83 6.39-9.158 9.275-11.52 16.424-2.36 7.15 15.126 6.849 20.593-5.228 5.467-12.077.827-16.616.827-16.616z"/>
            <path fill="#FFF" d="M72.327 96.783l-6.316-6.315 7.711-7.71 6.315 6.314"/>
            <path stroke="#004D78" stroke-linecap="round" stroke-linejoin="round" stroke-width="2" d="M72.327 96.783l-6.316-6.315 7.711-7.71 6.315 6.314"/>
            <path fill="#36F399" d="M114.105 95.99s-7.9-8.901-15.31-13.055c-5.809-3.258-12.018-1.856-12.018-1.856s4.005 8.012-5.208 17.225c-9.214 9.214-16.211 4.62-16.211 4.62s-1.895 7.82.776 14.575c2.312 5.847 11.517 14.944 11.517 14.944"/>
            <path stroke="#004D78" stroke-linecap="round" stroke-linejoin="round" stroke-width="2" d="M114.105 95.99s-7.9-8.901-15.31-13.055c-5.809-3.258-12.018-1.856-12.018-1.856s4.005 8.012-5.208 17.225c-9.214 9.214-16.211 4.62-16.211 4.62s-1.895 7.82.776 14.575c2.312 5.847 11.517 14.944 11.517 14.944"/>
            <path fill="#FFF" d="M34.853 80.868s9.583 10.404 15.261 12.62c3.482 1.359 7.107 1.945 18.19-2.85 2.336-1.01 4.484-2.414 5.403-5.403.92-2.989 4.25-13.545 1.68-20.562-1.404-3.829-11.68-13.579-11.68-13.579L34.853 80.868z"/>
            <path stroke="#004D78" stroke-linecap="round" stroke-linejoin="round" stroke-width="2" d="M34.853 80.868s9.583 10.404 15.261 12.62c3.482 1.359 7.107 1.945 18.19-2.85 2.336-1.01 4.484-2.414 5.403-5.403.92-2.989 4.25-13.545 1.68-20.562-1.404-3.829-11.68-13.579-11.68-13.579L34.853 80.868z"/>
            <path stroke="#004D78" stroke-linecap="round" stroke-width="2" d="M59.951 67.186s-1.723-1.972.48-4.176c1.848-1.848 4.228-.329 4.228-.329"/>
            <path stroke="#004D78" stroke-linecap="round" stroke-linejoin="round" stroke-width="2" d="M45.557 81.58s-1.723-1.973.48-4.176c1.849-1.848 4.228-.329 4.228-.329M55.213 75.118l2.938 2.938c.734.734 1.028 1.028 2.644-.588l2.056-2.056c.587-.587-.808-1.542-.808-1.542M57.93 86.502s2.571 1.01 3.915-.335c1.21-1.21 5.411-5.614 6.954-7.157 1.542-1.542 1.597-2.295.973-2.919M36.208 98.09s-.738-1.989-3.081-3.082c-2.343-1.093-4.567-.567-5.876 1.903"/>
            <path fill="#73C7EE" d="M23.362 56.366s-5.884 3.544-2.638 8.703"/>
            <path stroke="#004D78" stroke-linecap="round" stroke-linejoin="round" stroke-width="2" d="M23.362 56.366s-5.884 3.544-2.638 8.703"/>
            <path fill="#73C7EE" d="M43.754 69.52s4.033 1.539 6.405-1.55c2.372-3.09 1.083-3.94 1.083-3.94s6.345-.398 6.072-4.895c-.274-4.496-3.804-7.598-6.848-6.005-3.044 1.595-2.886 5.266 1.161 5.044"/>
            <path stroke="#004D78" stroke-linecap="round" stroke-linejoin="round" stroke-width="2" d="M43.754 69.52s4.033 1.539 6.405-1.55c2.372-3.09 1.083-3.94 1.083-3.94s6.345-.398 6.072-4.895c-.274-4.496-3.804-7.598-6.848-6.005-3.044 1.595-2.886 5.266 1.161 5.044"/>
            <g>
                <path fill="#73C7EE" d="M56.223 54.856s1.633 3.846 6.528 1.503c4.895-2.345 2.862-7.35.121-7.245-2.74.105-2.733 1.837-1.448 2.77"/>
                <path stroke="#004D78" stroke-linecap="round" stroke-linejoin="round" stroke-width="2" d="M56.223 54.856s1.633 3.846 6.528 1.503c4.895-2.345 2.862-7.35.121-7.245-2.74.105-2.733 1.837-1.448 2.77"/>
            </g>
            <g>
                <path fill="#73C7EE" d="M49.864 106.602s-2.132-4.058 1.614-4.861c3.746-.803 1.739 3.077 1.739 3.077"/>
                <path stroke="#004D78" stroke-linecap="round" stroke-linejoin="round" stroke-width="2" d="M49.864 106.602s-2.132-4.058 1.614-4.861c3.746-.803 1.739 3.077 1.739 3.077"/>
            </g>
            <g>
                <path fill="#73C7EE" d="M37.689 75.862s2.908 3.74 6.107-1.576c3.2-5.315-2.807-6.875-4.011-5.67-1.204 1.203-2.498 2.913.757 4.292"/>
                <path stroke="#004D78" stroke-linecap="round" stroke-linejoin="round" stroke-width="2" d="M37.689 75.862s2.908 3.74 6.107-1.576c3.2-5.315-2.807-6.875-4.011-5.67-1.204 1.203-2.498 2.913.757 4.292"/>
            </g>
            <g>
                <path fill="#73C7EE" d="M33.174 81.711s1.711 1.599 3.784.628c2.074-.97 4.298-3.306.92-6.215-2.133-1.837-4.018.048-3.462 1.477"/>
                <path stroke="#004D78" stroke-linecap="round" stroke-linejoin="round" stroke-width="2" d="M33.174 81.711s1.711 1.599 3.784.628c2.074-.97 4.298-3.306.92-6.215-2.133-1.837-4.018.048-3.462 1.477"/>
            </g>
            <g>
                <path fill="#73C7EE" d="M85.45 65.297s-3.34-.942-2.754 2.374c.585 3.316 6.609 3.776 8.037-1.926"/>
                <path stroke="#004D78" stroke-linecap="round" stroke-linejoin="round" stroke-width="2" d="M85.45 65.297s-3.34-.942-2.754 2.374c.585 3.316 6.609 3.776 8.037-1.926"/>
            </g>
            <g>
                <path fill="#73C7EE" d="M48.23 34.382s6.86-.556 4.153 5.33c-1.492 3.242-4.622-.12-4.622-.12"/>
                <path stroke="#004D78" stroke-linecap="round" stroke-linejoin="round" stroke-width="2" d="M48.23 34.382s6.86-.556 4.153 5.33c-1.492 3.242-4.622-.12-4.622-.12"/>
            </g>
            <g>
                <path fill="#FFF" d="M180.704 138.83l13.217-12.326c3.293-3.07 5.552-10.719 3.047-18.851-2.504-8.133-24.939-24.772-24.939-24.772s-9.252-6.612-16.137-.962c-5.66 4.647-15.609 14.556-15.609 14.556"/>
                <path stroke="#004D78" stroke-linecap="round" stroke-linejoin="round" stroke-width="2" d="M180.704 138.83l13.217-12.326c3.293-3.07 5.552-10.719 3.047-18.851-2.504-8.133-24.939-24.772-24.939-24.772s-9.252-6.612-16.137-.962c-5.66 4.647-15.609 14.556-15.609 14.556"/>
                <path fill="#FFF" d="M215.036 93.85s1.806 2.967 5.186-.031c3.381-2.998.166-4.96.166-4.96"/>
                <path stroke="#004D78" stroke-linecap="round" stroke-linejoin="round" stroke-width="2" d="M215.036 93.85s1.806 2.967 5.186-.031c3.381-2.998.166-4.96.166-4.96"/>
                <path fill="#FFF" d="M196.172 58.622L176.5 76.966l26.345 28.252 29.171-27.203-23.615-25.324z"/>
                <path stroke="#004D78" stroke-linecap="round" stroke-linejoin="round" stroke-width="2" d="M196.172 58.622L176.5 76.966l26.345 28.252 29.171-27.203-23.615-25.324zM207.408 70.67l-5.954-6.385M211.002 80.938s2.66 1.368 3.454 3.705M199.679 68.796s2.66 1.368 3.455 3.705"/>
                <path stroke="#004D78" stroke-linecap="round" stroke-linejoin="round" stroke-width="2" d="M218.286 82.335l-7.235-7.758-9.383 8.75-4.095-4.39"/>
                <path fill="#73C7EE" d="M211.71 47.142s-2.65-5.19-9.451-1.038-3.194 4.982-7.759 9.05c-2.87 2.556-3.414 8.211-3.414 8.211s5.16-7.275 9.354-5.712c4.193 1.562 11.686-3.32 11.686-3.32s-1.12-3.25-.416-7.19"/>
                <path stroke="#004D78" stroke-linecap="round" stroke-linejoin="round" stroke-width="2" d="M211.71 47.142s-2.65-5.19-9.451-1.038-3.194 4.982-7.759 9.05c-2.87 2.556-3.414 8.211-3.414 8.211s5.16-7.275 9.354-5.712c4.193 1.562 11.686-3.32 11.686-3.32s-1.12-3.25-.416-7.19"/>
                <path fill="#73C7EE" d="M211.71 47.142s-6.882 15.621 15.195 35.64c17.51 15.88 20.663-12.153 20.663-12.153s-6.587 6.142-10.779.472c-4.192-5.669-13.07-27.221-25.079-23.959"/>
                <path stroke="#004D78" stroke-linecap="round" stroke-linejoin="round" stroke-width="2" d="M211.71 47.142s-6.882 15.621 15.195 35.64c17.51 15.88 20.663-12.153 20.663-12.153s-6.587 6.142-10.779.472c-4.192-5.669-13.07-27.221-25.079-23.959z"/>
                <path fill="#36F399" d="M179.644 73.848s6.647 1.103 17.152 11.833c10.504 10.73 9.457 16.358 9.457 16.358l-14.49 13.513s-1.338 1.795-5.541.515c-4.204-1.28-16.287-8.074-20.296-18.653-2.428-6.407.843-11.305.843-11.305l12.875-12.26z"/>
                <path stroke="#004D78" stroke-linecap="round" stroke-linejoin="round" stroke-width="2" d="M179.644 73.848s6.647 1.103 17.152 11.833c10.504 10.73 9.457 16.358 9.457 16.358l-14.49 13.513s-1.338 1.795-5.541.515c-4.204-1.28-16.287-8.074-20.296-18.653-2.428-6.407.843-11.305.843-11.305l12.875-12.26zM188.972 85.707s-.67.933 2.72 4.237"/>
                <g>
                    <path fill="#FFF" d="M188.599 65.498s-2.835-2.008.392-5.17c3.226-3.164 4.96.18 4.96.18"/>
                    <path stroke="#004D78" stroke-linecap="round" stroke-linejoin="round" stroke-width="2" d="M188.599 65.498s-2.835-2.008.392-5.17c3.226-3.164 4.96.18 4.96.18"/>
                </g>
            </g>
            <g>
                <path fill="#73C7EE" d="M151.722 101.75s2.497-18.154-1.186-25.2c-3.106-5.942-9.244-10.463-16.86-10.463l-11.293 1.291s-5.488-1.983-12.565 5.893c-6.282 6.991-4.159 28.479-4.159 28.479"/>
                <path stroke="#004D78" stroke-linecap="round" stroke-linejoin="round" stroke-width="2" d="M151.722 101.75s2.497-18.154-1.186-25.2c-3.106-5.942-9.244-10.463-16.86-10.463l-11.293 1.291s-5.488-1.983-12.565 5.893c-6.282 6.991-4.159 28.479-4.159 28.479"/>
                <path fill="#FFF" d="M134.484 58.234s.158 3.292.16 7.701c0 4.41.064 8.995-5.942 9.066-4.76.055-5.208-5.532-5.208-5.532l-.144-12.297"/>
                <path stroke="#004D78" stroke-linecap="round" stroke-linejoin="round" stroke-width="2" d="M134.484 58.234s.158 3.292.16 7.701c0 4.41.064 8.995-5.942 9.066-4.76.055-5.208-5.532-5.208-5.532l-.144-12.297"/>
                <path fill="#FFF" d="M150.235 27.993s1.333 16.186 0 20.947c-1.333 4.76-8.57 9.62-12.187 11.856-3.619 2.235-14.282 3.237-20.948-1.193-4.043-2.687-15.424-6.855-3.237-31.61 12.188-24.755 34.468-17.328 36.372 0"/>
                <path stroke="#004D78" stroke-linecap="round" stroke-linejoin="round" stroke-width="2" d="M150.235 27.993s1.333 16.186 0 20.947c-1.333 4.76-8.57 9.62-12.187 11.856-3.619 2.235-14.282 3.237-20.948-1.193-4.043-2.687-15.424-6.855-3.237-31.61 12.188-24.755 34.468-17.328 36.372 0z"/>
                <path fill="#36F399" d="M129.607 11.236s1.272 12.568 0 22.66c-1.272 10.093-14.03 25.707-26.98 25.707 0 0-.19-20.565-1.713-28.182C99.39 23.804 105.674.192 131.192 0c25.518-.19 24.755 22.28 24.946 27.611.19 5.332-2.285 20.185-5.903 21.327l.151-18.883s-8.53 1.936-13.481-4.157c-4.951-6.094-7.298-14.663-7.298-14.663"/>
                <path stroke="#004D78" stroke-linecap="round" stroke-linejoin="round" stroke-width="2" d="M129.607 11.236s1.272 12.568 0 22.66c-1.272 10.093-14.03 25.707-26.98 25.707 0 0-.19-20.565-1.713-28.182C99.39 23.804 105.674.192 131.192 0c25.518-.19 24.755 22.28 24.946 27.611.19 5.332-2.285 20.185-5.903 21.327l.151-18.883s-8.53 1.936-13.481-4.157c-4.951-6.094-7.298-14.663-7.298-14.663zM110.05 23.994s-2.228 15.186-7.967 18.923"/>
                <path stroke="#004D78" stroke-linecap="round" stroke-linejoin="round" stroke-width="2" d="M124.527 52.177s.381 3.428 5.237 3.237c4.856-.19 3.904-3.237 3.904-3.237M131.763 39.99v6.093c0 1.524-3.999.762-3.999.762M117.672 25.899s.732 19.301-15.25 24.694M141.475 35.8c-3.523-1.713-7.046 0-7.046 0"/>
                <g>
                    <path fill="#FFF" d="M150.79 33.12s3.403-.705 3.515 3.812c.113 4.517-3.515 3.505-3.515 3.505"/>
                    <path stroke="#004D78" stroke-linecap="round" stroke-linejoin="round" stroke-width="2" d="M150.79 33.12s3.403-.705 3.515 3.812c.113 4.517-3.515 3.505-3.515 3.505"/>
                </g>
            </g>
            <g transform="translate(64.434 94.872)">
                <ellipse cx="62.15" cy="62.241" fill="#F0FFF6" rx="61.952" ry="62.056"/>
                <ellipse cx="62.15" cy="62.241" fill="#CAFADE" rx="53.767" ry="53.857"/>
                <ellipse cx="62.15" cy="62.241" fill="#28BA64" rx="43.6" ry="43.673"/>
                <g fill="#FFF">
                    <path d="M89.863 84.376c0 1.163-.397 2.116-1.188 2.854-.89.836-2.138 1.252-3.754 1.252-1.424 0-2.81-.42-4.155-1.26l1.33-2.737c1.05.71 2.027 1.066 2.928 1.066.768 0 1.15-.279 1.15-.832 0-.29-.134-.512-.401-.67-.172-.101-.558-.222-1.161-.363-.676-.158-1.12-.279-1.325-.368-.745-.307-1.245-.787-1.505-1.437-.141-.355-.214-.78-.214-1.276 0-.96.31-1.8.928-2.515.802-.92 2.032-1.38 3.697-1.38 1.157 0 2.284.234 3.372.702l-1.237 2.495c-.684-.371-1.34-.557-1.967-.557-.737 0-1.104.274-1.104.823 0 .25.15.453.447.606.134.073.527.178 1.18.319.963.21 1.665.549 2.12 1.013.572.582.859 1.336.859 2.265zm-12.399-3.258h-4.147c.08-.541.27-.969.576-1.288.382-.4.882-.601 1.501-.601 1.123 0 1.81.63 2.07 1.89zm3.437 2.204v-.5c0-1.3-.271-2.443-.814-3.424-.97-1.744-2.581-2.616-4.834-2.616-1.833 0-3.25.55-4.254 1.643-1.005 1.098-1.509 2.523-1.509 4.272 0 1.477.401 2.725 1.207 3.75 1.073 1.373 2.673 2.059 4.804 2.059 1.677 0 3.013-.489 4.01-1.466.554-.54.97-1.303 1.252-2.289h-3.551c-.405.679-.99 1.018-1.75 1.018-1.492 0-2.237-.816-2.237-2.447h7.676zm-10.665-6.225L64.828 88.07h-2.452l-5.361-10.973h4.132l2.486 5.62 2.494-5.62h4.109zm-16.474 5.487c0 .698-.225 1.287-.68 1.764a2.208 2.208 0 0 1-1.669.718c-.729 0-1.325-.29-1.783-.872a2.491 2.491 0 0 1-.565-1.61c0-.606.187-1.143.565-1.611.466-.582 1.062-.872 1.783-.872.65 0 1.203.242 1.662.722.458.485.687 1.07.687 1.76zm3.574 5.486V77.097h-3.688v1.078c-.394-.432-.776-.743-1.146-.932a4.58 4.58 0 0 0-2.074-.485c-1.26 0-2.379.444-3.353 1.336-1.226 1.119-1.837 2.616-1.837 4.49 0 1.845.6 3.326 1.795 4.444 1 .937 2.146 1.405 3.43 1.405.794 0 1.504-.185 2.127-.557.355-.214.71-.553 1.058-1.017v1.211h3.688zm-11.982-3.694c0 1.163-.397 2.116-1.188 2.854-.89.836-2.139 1.252-3.754 1.252-1.424 0-2.81-.42-4.155-1.26l1.329-2.737c1.05.71 2.028 1.066 2.93 1.066.767 0 1.149-.279 1.149-.832 0-.29-.134-.512-.401-.67-.172-.101-.558-.222-1.161-.363-.676-.158-1.12-.279-1.325-.368-.745-.307-1.245-.787-1.505-1.437-.141-.355-.214-.78-.214-1.276 0-.96.31-1.8.928-2.515.802-.92 2.032-1.38 3.697-1.38 1.157 0 2.284.234 3.372.702l-1.237 2.495c-.684-.371-1.34-.557-1.967-.557-.737 0-1.104.274-1.104.823 0 .25.15.453.447.606.134.073.527.178 1.18.319.962.21 1.665.549 2.12 1.013.572.582.859 1.336.859 2.265zM81.745 50.555c0-1.287-.45-2.413-1.361-3.365-.911-.952-1.99-1.421-3.222-1.421s-2.31.469-3.221 1.42c-.912.953-1.361 2.079-1.361 3.366s.45 2.413 1.36 3.365c.912.952 1.99 1.421 3.222 1.421s2.31-.47 3.222-1.421c.911-.952 1.36-2.078 1.36-3.365m8.241.603c0 2.373-.513 4.666-1.54 6.864-.899 1.918-2.49 4.344-4.762 7.28l-7.317 9.425H66.6l9.01-11.583c-3.119-.416-5.673-1.515-7.65-3.298-2.362-2.132-3.542-5.001-3.542-8.608 0-4.33 1.257-7.775 3.76-10.336 2.413-2.44 5.455-3.66 9.14-3.66 3.606 0 6.597 1.233 8.971 3.7 2.465 2.588 3.697 5.993 3.697 10.216m-34.871-.603c0-1.287-.45-2.413-1.36-3.365-.912-.952-1.99-1.421-3.222-1.421-1.233 0-2.31.469-3.222 1.42-.911.953-1.36 2.079-1.36 3.366s.449 2.413 1.36 3.365c.911.952 1.99 1.421 3.222 1.421s2.31-.47 3.221-1.421c.912-.952 1.36-2.078 1.36-3.365m8.241.603c0 2.373-.513 4.666-1.54 6.864-.898 1.918-2.49 4.344-4.762 7.28l-7.316 9.425h-9.768l9.01-11.583c-3.119-.416-5.673-1.515-7.65-3.298-2.361-2.132-3.542-5.001-3.542-8.608 0-4.33 1.258-7.775 3.76-10.336 2.414-2.44 5.456-3.66 9.14-3.66 3.606 0 6.597 1.233 8.972 3.7 2.464 2.588 3.696 5.993 3.696 10.216"/>
                </g>
            </g>
        </g>
        <path stroke="#FFF" stroke-opacity=".01" d="M.5.5h249v249H.5z"/>
    </g>
</svg>
