<svg xmlns="http://www.w3.org/2000/svg" width="320" height="260" viewBox="0 0 320 260">
    <g fill="none" fill-rule="evenodd">
        <ellipse cx="113" cy="127" fill="#F4F9FD" rx="112" ry="112"/>
        <g stroke="#253E50" stroke-linecap="round" stroke-linejoin="round" stroke-width="3">
            <path fill="#28BA64" d="M21.554 205.135h126.143V98H21.554z"/>
            <path d="M117.283 78.887l6.47-5.726M100.88 66.77l4.62-8.27M50.157 78.887l-6.113-3.804M66.56 66.77L60.5 59.5M82.834 64V52.5"/>
            <path fill="#FFF" d="M42.509 137.916h79.286v-14.138H42.51zM147.698 128.09h36.617l17.283 28.606 15.341 12.651v35.789h-69.241z"/>
            <path fill="#2894E1" d="M162.121 143.81v20.482h26.436l-9.79-20.481z"/>
            <path d="M21.554 204.947H3.842M21.554 193.158h-10.88"/>
            <path fill="#D9E5F2" d="M197.367 209.317c0 8.89-7.234 16.092-16.154 16.092-8.923 0-16.153-7.203-16.153-16.092s7.23-16.091 16.153-16.091c8.92 0 16.154 7.202 16.154 16.091zM76.742 209.317c0 8.89-7.235 16.092-16.154 16.092-8.923 0-16.153-7.203-16.153-16.092s7.23-16.091 16.153-16.091c8.92 0 16.154 7.202 16.154 16.091z"/>
        </g>
        <path fill="#2994E0" d="M217.64 232.168c-8.736-11.424-13.104-28.272-13.104-50.544h30.816c0 13.056 1.776 23.52 5.328 31.392 3.552 7.872 10.512 11.808 20.88 11.808 7.872 0 13.728-2.304 17.568-6.912 3.84-4.608 6.288-10.704 7.344-18.288s1.584-17.712 1.584-30.384c0-11.712-.624-21.072-1.872-28.08-1.248-7.008-3.744-12.384-7.488-16.128-3.744-3.744-9.36-5.616-16.848-5.616-5.952 0-11.184 1.824-15.696 5.472-4.512 3.648-7.92 8.256-10.224 13.824H209.72V13.72h100.512v30.816h-72.576l-2.016 64.512c8.256-8.64 19.488-12.96 33.696-12.96 17.856 0 30.576 6.096 38.16 18.288 7.584 12.192 11.376 29.136 11.376 50.832 0 26.496-4.32 47.136-12.96 61.92-8.64 14.784-23.616 22.176-44.928 22.176-20.16 0-34.608-5.712-43.344-17.136z"/>
        <path stroke="#FFF" stroke-opacity=".01" d="M.5.5h319v259H.5z"/>
    </g>
</svg>
