<svg xmlns="http://www.w3.org/2000/svg" width="320" height="260" viewBox="0 0 320 260">
    <g fill="none" fill-rule="evenodd">
        <path fill="#F4F9FD" d="M188 251c60.199 0 109-48.801 109-109S248.199 33 188 33c-35.727 0-67.44 17.189-87.318 43.747-13.617 18.192 0 52.558 0 77.03 0 10.503-20.196 8.882-17.424 18.493C96.376 217.742 138.304 251 188 251z"/>
        <path fill="#FFF" d="M135.821 134.267s13.532 52.187 18.255 64.431c4.724 12.244 3.14 20.568 38.245 20.4 35.105-.168 39.735-.867 45.316-.433 5.58.433 5.224 0 8.97-19.967 3.744-19.966 21.902-64.43 5.68-65.789-16.22-1.358-116.466 1.358-116.466 1.358z"/>
        <path fill="#28BA64" d="M135.821 134.267l4.797 8.484s119.42 3.058 119.42 0 0-8.484-7.75-9.842c-7.75-1.358-116.467 1.358-116.467 1.358z"/>
        <g stroke="#253E50" stroke-width="3">
            <path stroke-linecap="round" stroke-linejoin="round" d="M107 116.144s19.77-5.142 24.712 5.45c4.943 10.592 17.523 60.765 21.117 72.862 3.595 12.095 9.885 23.742 30.554 24.19 20.668.448 60.655 0 60.655 0"/>
            <path stroke-linecap="round" stroke-linejoin="round" d="M135.9 133.486h112.395s12.369-.851 11.47 8.108c-.899 8.959-6.74 38.078-8.538 45.245-1.797 7.168-3.144 7.616-10.333 7.616h-63.352c-7.19 0-7.64-3.136-8.986-11.2-1.349-8.062-4.943-20.159-6.29-25.086-1.35-4.928 0-3.942 9.884-4.435 9.885-.493 58.41 0 58.41 0s8.377-1.233 6.85 3.185c-1.526 4.418-3.91 22.958-3.91 22.958M179.351 153.569l4.48 26.551M198.997 153.734l2.152 26.386M219.653 153.569l-1.142 26.551M166.72 169h67.51"/>
            <path fill="#2894E1" stroke-linecap="round" stroke-linejoin="round" d="M190.812 234.427c0 5.137-4.178 9.303-9.331 9.303s-9.331-4.166-9.331-9.303c0-5.138 4.178-9.304 9.331-9.304s9.331 4.166 9.331 9.304zM238.315 234.427c0 5.137-4.178 9.303-9.33 9.303-5.154 0-9.332-4.166-9.332-9.303 0-5.138 4.178-9.304 9.331-9.304s9.331 4.166 9.331 9.304z"/>
            <path fill="#28BA64" stroke-linecap="round" stroke-linejoin="round" d="M251.062 58.8c2.5-8.879-.194-18.787-7.725-25.122-8.607-7.241-20.765-7.486-29.591-1.37l-10.901-9.17-43.698 51.64"/>
            <path fill="#FFF" stroke-linecap="round" stroke-linejoin="round" d="M265.091 72.092c-4.748-10.864-16.138-16.764-27.36-15.091l-6.014-13.76-81.187 35.282 5.803 13.273c-10.361 6.704-14.667 20.058-9.57 31.718a25.47 25.47 0 0 0 7.733 9.95l69.794.022 39.395-17.12-6.129-14.018c8.867-7.058 12.284-19.392 7.535-30.256z"/>
            <path fill="#FFF" stroke-linecap="round" stroke-linejoin="round" d="M195.09 85.554c2.765 6.327.848 13.264-4.283 15.493-5.13 2.23-11.532-1.092-14.298-7.42-2.765-6.326-.848-13.262 4.282-15.493 5.13-2.229 11.533 1.092 14.298 7.42zM235.942 98.012c2.766 6.328.849 13.265-4.282 15.494-5.13 2.23-11.532-1.092-14.298-7.42-2.765-6.326-.848-13.263 4.282-15.493 5.13-2.229 11.533 1.092 14.298 7.42z"/>
            <path stroke-linecap="round" stroke-linejoin="round" d="M202.907 128.725l7.638-63.52"/>
            <path stroke-linecap="square" d="M153.5 218.69h-19.388M144.5 205.69h-12.388"/>
        </g>
        <path fill="#2894E1" d="M85.624 178.656H18.52v-34.272L78.424 6.72h38.304v142.848h25.92v29.088h-25.92V240H85.624v-61.344zm0-29.088V45.888l-36 103.68h36z"/>
        <path stroke="#FFF" stroke-opacity=".01" d="M.5.5h319v259H.5z"/>
    </g>
</svg>
