<svg xmlns="http://www.w3.org/2000/svg" width="320" height="260" viewBox="0 0 320 260">
    <g fill="none" fill-rule="evenodd">
        <path fill="#F4F9FD" d="M188 251c60.199 0 109-48.801 109-109S248.199 33 188 33c-51.716 0-95.02 36.016-106.197 84.334-1.834 7.926 36.449-3.071 36.449 5.412 0 16.788 19.551 36.344 16.545 55.348-3.023 19.109-28.571 37.648-16.545 47.672C137.153 241.522 161.47 251 188 251z"/>
        <path fill="#2894E1" d="M50.456 222.682c-9.372-13.916-14.058-32.14-14.058-54.67V90.48c0-24.803 4.355-44.588 13.064-59.356 8.71-14.768 23.193-22.152 43.452-22.152 17.797 0 31.524 4.828 41.18 14.484 9.656 9.656 14.673 23.477 15.052 41.464l.284 3.408h-30.672c0-11.739-1.893-20.4-5.68-25.986-3.787-5.585-10.508-8.378-20.164-8.378-17.419 0-26.128 16.377-26.128 49.132v34.932c3.03-4.923 7.431-8.804 13.206-11.644 5.775-2.84 12.543-4.26 20.306-4.26 17.987 0 30.767 5.727 38.34 17.182 7.573 11.455 11.36 27.88 11.36 49.274 0 22.53-4.639 40.66-13.916 54.386-9.277 13.727-23.667 20.59-43.168 20.59-18.933 0-33.086-6.958-42.458-20.874zm62.764-16.046c4.07-7.763 6.106-17.987 6.106-30.672 0-11.55-.473-20.732-1.42-27.548-.947-6.816-3.313-12.401-7.1-16.756-3.787-4.355-9.75-6.532-17.892-6.532-5.87 0-11.029 1.515-15.478 4.544-4.45 3.03-8 6.721-10.65 11.076v34.364c0 13.064 2.035 23.525 6.106 31.382 4.07 7.857 10.745 11.786 20.022 11.786 9.467 0 16.235-3.881 20.306-11.644z"/>
        <path fill="#FFF" d="M169 52h96v105h-96z"/>
        <path fill="#D9E5F2" d="M169 36.003A4.996 4.996 0 0 1 173.993 31h86.014c2.758 0 4.993 2.247 4.993 5.003V52h-91.007c-2.758 0-4.993-2.247-4.993-5.003V36.003zM169 157h96v28h-96z"/>
        <path fill="#28BA64" d="M127.756 167.761l52.155 55.93-20.478 19.095-52.155-55.929z"/>
        <path fill="#FFF" d="M235.917 185.266s-2.052 18.336-45.776 23.3c.539.11-10.53 12.247-10.53 12.247l-46.14-45.422 12.74-14.147s-4.588-17.957 4.886-39.393c9.473-21.436 7.009-34.599 12.855-38.804 5.847-4.205 15.194-.618 15.427 11.605.233 12.223-7.052 37.401-7.052 37.401s11.397 12.028 11.882 27.683c.485 15.655-1.393 24.316-1.393 24.316l53.101 1.214z"/>
        <g stroke="#253E50" stroke-linecap="round" stroke-linejoin="round" stroke-width="3">
            <path fill="#FFF" d="M258.962 82.833l-2.584-2.835c-2.57-2.824-2.368-7.242.451-9.816l8.15-7.44c2.82-2.574 7.228-2.372 9.799.452l2.587 2.835c2.571 2.824 2.365 7.238-.455 9.812l-8.15 7.444c-2.82 2.574-7.228 2.372-9.798-.452zM261.2 107.246l-2.584-2.836c-2.57-2.823-2.368-7.241.451-9.815l8.15-7.44c2.82-2.575 7.228-2.372 9.799.451l2.587 2.836c2.57 2.823 2.364 7.237-.455 9.812l-8.15 7.444c-2.82 2.574-7.228 2.371-9.799-.452zM262.937 131.658l-2.584-2.835c-2.57-2.824-2.368-7.242.451-9.816l8.15-7.44c2.82-2.574 7.228-2.372 9.799.452l2.587 2.835c2.571 2.824 2.365 7.238-.455 9.812l-8.15 7.444c-2.82 2.574-7.228 2.372-9.798-.452zM263.387 156.243l-2.584-2.836c-2.57-2.823-2.368-7.242.451-9.816l8.15-7.44c2.82-2.574 7.228-2.371 9.799.452l2.587 2.836c2.571 2.823 2.365 7.237-.455 9.811l-8.15 7.444c-2.82 2.575-7.228 2.372-9.798-.451z"/>
            <path fill="#28BA64" d="M204.365 106.596l-1 15.242 15.059-7.62 17.308 7.62-1.622-16.327 9.718-14.318-15.939-.574-8.921-17.606-8.926 18.15-15.142.81z"/>
            <path d="M169.33 78.937v-39.12c0-4.98.132-8.807 8.914-8.765 14.53.07 71.357-.042 79.773-.042 8.634 0 8.634 3.718 8.634 9.297l.219 20.272M266.87 52h-97.539M262.937 157h-78.694M265.31 162.348v7.276c0 3.063.764 14.934-9.557 14.934h-71.508"/>
            <path d="M135.68 173.453l10.708-12.635s-2.297-27.417 4.585-38.98c6.886-11.567 8.416-24.202 10.709-34.925 2.296-10.718 14.147-10.339 16.827 6.896 2.676 17.23-6.502 39.82-6.502 39.82s14.147 10.723 12.238 33.312c-1.913 22.594-3.443 23.742-3.443 23.742"/>
            <path d="M236.25 184.557s-3.06 21.062-46.653 23.742l-11.088 13.019-51.625-52.45-19.883 17.985 53.05 55.067 18.458-20.602"/>
            <path fill="#FFF" d="M134.169 189.631a4.13 4.13 0 1 1-4.126-4.132 4.13 4.13 0 0 1 4.126 4.132z"/>
            <path d="M214.962 170h8.804"/>
        </g>
        <path stroke="#FFF" stroke-opacity=".01" d="M.5.5h319v259H.5z"/>
    </g>
</svg>
