<svg xmlns="http://www.w3.org/2000/svg" width="320" height="260" viewBox="0 0 320 260">
    <g fill="none" fill-rule="evenodd">
        <path fill="#F4F9FD" d="M184.5 254c67.655 0 122.5-54.845 122.5-122.5 0-40.013-19.185-75.546-48.857-97.902C237.645 18.155 212.14 9 184.5 9 116.845 9 62 63.845 62 131.5S116.845 254 184.5 254z"/>
        <g transform="translate(83 7)">
            <path fill="#FFF" d="M153.898 76.257s-.398 14.125-9.722 23.19c-1.889 2.581 6.1 20.646 6.1 20.646l-22.119-9.652-18.954 3.633-7.886 11.014-7.274-10.8-18.748-3.325-20.36 10.977 6.371-21.104S47.19 89.88 52.188 75.592c4.999-14.29 14.599-31.76 54.333-32.08 39.735-.318 47.377 32.745 47.377 32.745z"/>
            <path fill="#2994E0" d="M82.577 68.693l.42 27.719 39.2.66-1.444-24.718z"/>
            <path fill="#28BA64" d="M96.585 69.637h10.732V97.76H96.585z"/>
            <path fill="#D9E5F2" d="M132.2 62.62l-2.231 10.497-43.227-9.188 2.231-10.497z"/>
            <ellipse cx="99.939" cy="158.023" fill="#FFF" rx="16.768" ry="18.749"/>
            <ellipse cx="163.659" cy="171.415" fill="#FFF" rx="13.415" ry="14.731"/>
            <ellipse cx="37.561" cy="171.415" fill="#DAE5F2" rx="13.415" ry="14.731"/>
            <path fill="#28BA64" d="M26.728 189.972l-10.713 7.483-3.206 24.28 26.772 3.875 26.66 2.643 73.082-.926 52.702-4.715-4.648-24.493-12.31-9.212s-3.158 9.961-9.385 9.587c-6.227-.375-11.953-10.147-11.953-10.147l-13.392 7.956-23.44-14.262-14.576 10.763-15.05-10.806-23.892 12.95-12.981-7.327-11.599 15.803-12.071-13.452z"/>
            <path stroke="#253E4F" stroke-linecap="round" stroke-linejoin="round" stroke-width="3" d="M128.52 110.065c-6.38 2.58-13.634 4.241-21.38 4.722m-14.252.255c-7.846-1.11-13.48-2.427-19.592-5.689m-11.131-7.762C55.03 95.465 50.76 87.678 50.76 79.203c0-19.733 23.144-35.73 51.696-35.73 14.275 0 27.2 4 36.554 10.466m3.888 47.652c7.135-6.126 11.405-13.913 11.405-22.388 0-19.733-23.145-35.73-51.696-35.73-14.276 0-27.2 4-36.555 10.466m88.1 25.264c0 8.868-4.675 16.98-12.413 23.227m-33.122 9.84l-7.669 12.569-8.248-12.57m-18.788-1.531l-19.757 11.639 6.745-21.372m67.717 9.295l22.431 9.615-8.395-17.938M85.886 61.868l2.955-9.672 39.574 11.876-2.956 9.671-39.573-11.875zM99.18 98.31h7.597V68.4H99.18v29.91zm23.412-24.568V98.31H83.365V68.4h18.225M50.76 171.634c0 6.932-4.946 12.552-11.046 12.552-6.101 0-11.047-5.62-11.047-12.552 0-6.933 4.946-12.553 11.047-12.553 6.1 0 11.046 5.62 11.046 12.553zm124.475 0c0 6.932-4.946 12.552-11.047 12.552-6.1 0-11.046-5.62-11.046-12.552 0-6.933 4.946-12.553 11.047-12.553 6.1 0 11.046 5.62 11.046 12.553zm-57.775-13.626c0 10.363-7.392 18.763-16.512 18.763-9.12 0-16.512-8.4-16.512-18.763 0-10.362 7.393-18.763 16.512-18.763 9.12 0 16.512 8.4 16.512 18.763zM12.253 221.08l3.05-22.69 12.563-10.563 11.053 17.843 9.87-17.843 13.381 7.63m101.188 28.154l.168-25.222m26.667 22.691l-2.702-22.242-12.912-11.011s-.668 11.178-11.052 10.563c-10.386-.614-9.87-10.563-9.87-10.563l-13.625 7.769m-39.323 29.935l1.003-29.91-1.003 29.91zM86.36 181.068l1.41 18.555 13.818-4.002m14.58-14.553l1.292 17.321-16.52-2.768 15.228-14.553-15.229 14.552-13.597-14.552-22.69 12.936-2.483 32.878m79.561 0l-4.35-32.339-21.212-13.475M39.087 223.61l-.167-17.941.167 17.94z"/>
        </g>
        <path fill="#2894E1" d="M277.936 46.04c-.384.576-6.192 1.92-17.424 4.032s-18.96 3.552-23.184 4.32V31.064c23.424-5.568 39.456-14.016 48.096-25.344h23.328V239h-30.816V46.04z"/>
        <path stroke="#FFF" stroke-opacity=".01" d="M.5.5h319v259H.5z"/>
    </g>
</svg>
