<svg xmlns="http://www.w3.org/2000/svg" width="278" height="243" viewBox="0 0 278 243">
    <g fill="none" fill-rule="evenodd">
        <path d="M-20-8h320v260H-20z"/>
        <path fill="#F3F9FD" d="M152 243c61.856 0 112-50.144 112-112S213.856 19 152 19c-19.597 0-38.346 4.425-54.043 13.878-12.3 7.406 0 7.953 0 50.212 0 14.98-55.016 77.184-49.68 90.244C64.975 214.203 105.124 243 152 243z"/>
        <path fill="#28BA64" d="M91.525 99.669l-22.849 54.233 32.048 18.015 23.52-61.847z"/>
        <path fill="#FFF" d="M123.611 114.945l-18.334 44.22 4.562 7.11s6.11-8.001 12.092-9.883c5.981-1.881 5.83-3.814 6.787 1.016.956 4.83 2.414 10.817 2.414 10.817s6.038-10.44 9.662-11.136c3.624-.697 9.468 9.325 9.468 9.325s10.72-6.333 14.983-.24c4.264 6.094.267 15.182.267 15.182s9.664-1.162 10.942 4.31c1.278 5.473-3.401 11.253-3.401 11.253s9.413 10.144 13.953 5.072c4.54-5.072 5.657-9.684 5.657-9.684s10.04 4.405 12.597-1.118c2.556-5.523 2.556-8.248 2.556-8.248s11.449 4.12 13.408-1.34c1.959-5.458 1.423-11.43 1.423-11.43s10.296 4.354 10.398 2.177c.103-2.177 1.093-12.91 1.093-12.91l-43.524-18.566s-4.715-1.356-8.976-3.552c-2.88-1.485-5.554-3.353-6.425-5.447-2.16-5.19-14.414.814-14.414.814s-8.569 13.307-14.287 10.746-1.837-6.503-1.694-10.68c.143-4.176.654-13.918.654-13.918l35.126-.45-3.045-12.016-31.712-.046s-11.672 7.175-16.951 7.175-5.279 1.447-5.279 1.447z"/>
        <path fill="#FFF" d="M226.192 114.44l18.7 52.648-9.02 4.195-.54-11.189-35.503-13.928-17.313-6.634-9.91-8.188h-12.093s-4.445 8.823-9.306 11.104c-4.861 2.281-7.486 1.295-7.036-6.371.45-7.667 1.1-15.85 1.1-15.85l20.187-2.376 19.78-.147s12.072 4.881 18.688 4.784c6.616-.098 14.49-7.669 14.49-7.669l7.776-.38zM109.739 164.705s1.705-4.994 4.83-7.241c3.127-2.248 9.543-2.872 12.037-1.84 4.504 1.862 4.974 10.839 4.974 10.839s5.121-9.067 9.11-9c3.99.069 11.566 9.033 11.566 9.033s7.539-5.443 11.62-.33c4.08 5.114 5.168 10.332 2.583 15.057-2.584 4.725 5.77-1.19 7.634 3.373 1.862 4.564 1.102 11.712 1.102 11.712s-10.255 5.095-12.224 2.548c-1.97-2.548-4.965-9.696-4.965-9.696s-2.461 1.783-9.888.892c-7.428-.892-7.085-8.08-7.085-8.08s-9.277 4.917-12.67.175c-3.393-4.74-1.673-9.009-1.673-9.009s-9.032 2.31-12.12.6c-3.088-1.712-4.831-9.033-4.831-9.033z"/>
        <path fill="#2894E1" d="M226.867 111.726l19.598 54.852 30.53-10.167-18.819-58.535z"/>
        <g stroke="#253E4F" stroke-linecap="round" stroke-linejoin="round" stroke-width="3">
            <path d="M225.674 111.54L245 168.824l31.379-12.964-17.497-57.586zM227.013 115.51s-6.063-2.338-9.881 0c-3.82 2.339-6.367 8.061-22.282 4.882-15.914-3.18-18.779-4.663-34.375-2.49l-15.597 2.172s-.318 14.943-1.909 16.216c-1.592 1.271-1.592 8.583 6.365 7.312 7.958-1.272 10.504-12.082 10.504-12.082l14.96-.635s5.73 8.902 11.46 9.22c5.728.317 44.56 19.817 46.47 20.083 1.91.266 2.547 4.717 1.592 10.122l9.73-4.301"/>
            <path d="M234.32 170.31s-1.592 4.554-10.186 1.323l-18.78-8 15.674 6.677s3.122 8.866.8 11.798c-3.403 4.3-10.744 3.014-10.744 3.014s-7.958-4.533-11.459-6.493l7.25 4.642c-.319 2.404-.869 8.25-4.826 9.614-3.897 1.343-8.956 0-8.956 0s-1.233 10.12-10.464 8.535c-9.23-1.585-8.907-4.35-8.907-4.35s2.031-1.642 2.031-8.636c0-6.996-11.443-6.65-11.443-6.65s2.98-3.84 3.298-8.526c.318-4.687-3.95-9.942-9.043-9.625-5.093.318-7.641 3.23-7.641 3.23s-2.298-9.271-8.787-9.589c-6.49-.318-11.9 11.55-11.9 11.55s.955-13.776-3.501-13.776c-4.456 0-11.46 1.59-11.46 1.59l-5.091 9.856-3.82-7.63 15.915-44.392c17.506.756 19.416-8.707 27.373-8.388 7.957.318 26.737-.636 28.01 1.59 1.273 2.225 4.966 10.232 4.966 10.232"/>
            <path d="M110.184 166.495s0 6.676 3.82 7.63c3.82.954 12.12 1.359 16.232-5.301 0 0-5.092 6.995-4.137 9.804.955 2.81 6.047 7.747 11.778 4.643 5.729-3.104 4.26-2.151 4.26-2.151l8.786-14.258s-8.98 13.863-8.786 17.4c.196 3.536 1.786 5.761 6.562 6.079 4.774.318 9.23 0 9.23 0l6.38-8.557-6.38 8.557s.366 4.233 3.664 7.527c3.298 3.295 12.129-.798 12.129-.798M122.28 114.471l1.919-3.945-33.8-10.714L67 155.425l34.125 14.885z"/>
            <path fill="#FFF" d="M97.854 151.527a4.146 4.146 0 0 1-4.148 4.143 4.147 4.147 0 0 1-4.15-4.143 4.147 4.147 0 0 1 4.15-4.144 4.146 4.146 0 0 1 4.148 4.144zM258.938 152.86a4.146 4.146 0 0 1-4.148 4.144 4.147 4.147 0 0 1-4.15-4.143 4.147 4.147 0 0 1 4.15-4.144 4.146 4.146 0 0 1 4.148 4.144z"/>
        </g>
        <path fill="#2894E1" d="M.808 214.112l59.328-92.448c2.88-4.608 4.8-7.488 5.76-8.64 6.72-10.752 11.616-19.68 14.688-26.784 3.072-7.104 4.608-15.648 4.608-25.632 0-11.136-1.824-19.68-5.472-25.632-3.648-5.952-9.6-8.928-17.856-8.928-18.432 0-27.648 14.304-27.648 42.912v7.776H3.4v-8.064c0-21.888 4.512-38.688 13.536-50.4C25.96 6.56 40.456.704 60.424.704c18.432 0 32.352 5.232 41.76 15.696 9.408 10.464 14.112 25.296 14.112 44.496 0 9.408-1.104 17.808-3.312 25.2-2.208 7.392-4.848 13.776-7.92 19.152-3.072 5.376-7.872 13.056-14.4 23.04L37.096 210.08h73.728V236H.808v-21.888z"/>
    </g>
</svg>
