<svg xmlns="http://www.w3.org/2000/svg" width="320" height="260" viewBox="0 0 320 260">
    <g fill="none" fill-rule="evenodd">
        <circle cx="127.5" cy="127.5" r="106.5" fill="#F4F9FD"/>
        <g stroke="#253E50" stroke-linecap="round" stroke-linejoin="round" stroke-width="3">
            <path fill="#D9E5F2" d="M213.935 209.294v-37.403h-56.286v37.403"/>
            <path fill="#28BA64" d="M157.649 209.294v-68.269h-56.286v68.269"/>
            <path fill="#D9E5F2" d="M101.363 209.294v-37.403H45.077v37.403"/>
            <path fill="#FFF" d="M113.292 230.265s0-1.922 1.495-4.057c1.495-2.136 17.91-29.415 19.45-31.725.853-1.281 3.34-8.368.623-10.397-2.405-1.796-7.153-1.23-10.464 3.469l-11.958 19.149s-4.293-7.701-10.262-3.722c0 0-5.259-9.238-10.944-3.411 0 0-4.406-7.96-8.955-4.548-4.548 3.41-15.065 20.183-17.908 28-2.843 7.817-1.706 18.76 7.533 26.152 9.238 7.39 16.345 5.4 20.61 4.12 4.263-1.278 24.37-11.914 28.71-15.207 5.651-4.288 10.818-6.267 9.237-9.096-2.7-4.832-16.852-1.15-17.167 1.273z"/>
            <path fill="#D9E5F2" d="M85.028 137.371c2.335-2.86 2.935-6.928 1.192-10.455-1.992-4.03-6.402-6.06-10.61-5.223l-2.524-5.105-24.256 11.985"/>
            <path fill="#FFF" d="M88.036 144.489c0-4.746-3.225-8.73-7.599-9.905v-6.01h-35.36v5.798c-4.865.808-8.577 5.023-8.577 10.117 0 5.094 3.712 9.309 8.577 10.117v5.91h35.36v-6.122c4.374-1.177 7.6-5.16 7.6-9.905z"/>
            <path d="M60.261 138.263c0 2.764-1.812 5.004-4.046 5.004-2.235 0-4.046-2.24-4.046-5.004 0-2.764 1.811-5.004 4.046-5.004 2.234 0 4.046 2.24 4.046 5.004zM73.22 149.354c0 2.764-1.812 5.004-4.046 5.004-2.235 0-4.046-2.24-4.046-5.004 0-2.764 1.811-5.004 4.046-5.004 2.234 0 4.046 2.24 4.046 5.004zM56.215 155.358l12.959-22.1"/>
            <path fill="#D9E5F2" d="M214.927 137.371c2.336-2.86 2.935-6.928 1.192-10.455-1.992-4.03-6.402-6.06-10.611-5.223l-2.523-5.105-24.256 11.985"/>
            <path fill="#FFF" d="M217.935 144.489c0-4.746-3.225-8.73-7.6-9.905v-6.01h-35.36v5.798c-4.864.808-8.576 5.023-8.576 10.117 0 5.094 3.712 9.309 8.577 10.117v5.91h35.36v-6.122c4.374-1.177 7.599-5.16 7.599-9.905z"/>
            <path d="M190.16 138.263c0 2.764-1.813 5.004-4.047 5.004s-4.046-2.24-4.046-5.004c0-2.764 1.811-5.004 4.046-5.004 2.234 0 4.047 2.24 4.047 5.004zM203.119 149.354c0 2.764-1.813 5.004-4.047 5.004s-4.046-2.24-4.046-5.004c0-2.764 1.811-5.004 4.046-5.004 2.234 0 4.047 2.24 4.047 5.004zM186.113 155.358l12.96-22.1"/>
            <path fill="#28BA64" d="M154.727 102.492c2.838-3.477 3.567-8.419 1.45-12.705-2.422-4.899-7.782-7.365-12.897-6.348l-3.065-6.204L110.737 91.8"/>
            <path fill="#FFF" d="M158.383 111.142c0-5.768-3.92-10.607-9.235-12.037V91.8h-42.971v7.047c-5.912.98-10.424 6.104-10.424 12.294s4.512 11.313 10.424 12.294v7.185h42.97v-7.442c5.317-1.43 9.236-6.27 9.236-12.037z"/>
            <path d="M124.629 103.576c0 3.359-2.201 6.082-4.917 6.082-2.716 0-4.917-2.723-4.917-6.082 0-3.36 2.2-6.082 4.917-6.082 2.716 0 4.917 2.723 4.917 6.082zM140.377 117.054c0 3.359-2.2 6.082-4.917 6.082-2.716 0-4.917-2.723-4.917-6.082s2.201-6.082 4.917-6.082c2.716 0 4.917 2.723 4.917 6.082zM119.712 124.351l15.748-26.857M150.718 73.428l7.664-7.49M140.377 65.718l4.613-9.252M108.4 73.428l-7.665-7.49M118.74 65.718l-4.613-9.252M129 63.955V52.5"/>
        </g>
        <path fill="#2894E1" d="M215.064 228.896c-9.696-10.464-14.544-25.2-14.544-44.208v-7.776h30.528v5.184c.384 11.904 2.448 21.024 6.192 27.36 3.744 6.336 10.512 9.504 20.304 9.504 10.368 0 17.424-3.6 21.168-10.8 3.744-7.2 5.616-17.904 5.616-32.112 0-13.056-2.4-23.28-7.2-30.672-4.8-7.392-12.576-11.472-23.328-12.24-.768-.192-2.208-.288-4.32-.288v-30.816h4.032c10.944-.384 18.816-3.264 23.616-8.64 4.8-5.376 7.2-14.304 7.2-26.784 0-11.52-1.92-20.208-5.76-26.064-3.84-5.856-10.752-8.784-20.736-8.784s-16.848 3.168-20.592 9.504c-3.744 6.336-5.808 15.648-6.192 27.936v4.896H200.52V66.32c0-19.008 4.848-33.696 14.544-44.064 9.696-10.368 23.952-15.552 42.768-15.552S290.904 11.936 300.6 22.4c9.696 10.464 14.544 25.2 14.544 44.208 0 13.632-2.976 24.768-8.928 33.408-5.952 8.64-14.112 14.496-24.48 17.568 10.56 3.264 18.768 9.888 24.624 19.872 5.856 9.984 8.784 22.848 8.784 38.592 0 21.696-4.656 38.544-13.968 50.544-9.312 12-23.856 18-43.632 18-18.624 0-32.784-5.232-42.48-15.696z"/>
        <path stroke="#FFF" stroke-opacity=".01" d="M.5.5h319v259H.5z"/>
    </g>
</svg>
