<svg xmlns="http://www.w3.org/2000/svg" width="220" height="120" viewBox="0 0 220 120">
    <g fill="none" fill-rule="evenodd">
        <g fill="#FFF">
            <path d="M38.541 68.628h7.978v-9.785h-7.978zM42.436 57.9c2.225 0 4.028-1.022 4.028-2.284 0-1.261-1.803-2.284-4.028-2.284-2.226 0-4.03 1.023-4.03 2.284 0 1.262 1.804 2.285 4.03 2.285M174.27 68.628h7.978v-9.785h-7.978zM178.164 57.9c2.224 0 4.029-1.022 4.029-2.284 0-1.261-1.805-2.284-4.029-2.284-2.226 0-4.03 1.023-4.03 2.284 0 1.262 1.804 2.285 4.03 2.285M84.324 53.617v15.01h8.168v-4.94c0-1.139.95-1.614 1.804-1.614.856 0 1.71-.285 1.71 1.805v4.75h7.598v-6.27c0-1.615-.666-3.926-4.749-3.99-2.991-.048-5.365.807-6.363 1.33v-6.081h-8.168M49.659 58.842v3.23h2.659v3.136c0 1.425 1.14 3.42 4.75 3.42 3.608 0 4.937-.76 6.173-1.236v-2.375c-.57.19-3.325 1.33-3.325-.95v-1.994h3.325v-3.23h-3.325v-3.135h-7.598v3.134h-2.66M81.665 59.698c-1.805-1.093-3.94-1.52-7.123-1.52-3.181 0-8.927 1.377-8.927 5.367s5.033 5.415 8.263 5.415c3.228 0 7.027-.712 7.787-1.235V64.97c-.95.57-7.787 1.9-7.787-1.284 0-1.71 2.754-2.09 3.56-2.09.808 0 3.515.38 4.227.903v-2.802M126.35 58.842v9.786h8.168v-4.94c0-1.14.95-1.805 1.804-1.805 1.567 0 1.71.094 1.71 1.995v4.75h7.598v-6.27c0-1.9-.855-4.154-4.94-4.086-2.801.048-5.317.95-6.172 1.426v-.856h-8.168M164.387 52.097h-10.353c.476.096 1.282 1.378 1.045 1.9l-7.978 14.63h4.464l1.852-3.704h6.886l1.805 3.705h10.304l-8.025-16.53zm-9.474 9.833l2.16-4.322 1.805 4.322h-3.965zM197.058 53.617v5.463c-.998-.475-3.324-.903-4.797-.903-2.326 0-7.36.808-7.36 5.13 0 4.656 4.939 5.32 6.885 5.32 1.948 0 4.18-.284 5.272-.902v.903h7.598V53.617h-7.598zm0 10.213c0 .38-.808.95-1.662.95-.813 0-2.707.19-2.707-1.615 0-1.33 1.994-1.853 2.611-1.853.618 0 1.758.143 1.758 1.093v1.425zM116.906 66.062c-1.188 0-2.754-.237-3.372-2.042h10.922c0-2.232-.949-6.365-9.022-6.412-4.844 0-9.688 1.614-9.734 5.605-.048 3.99 5.222 5.415 10.114 5.415 4.891 0 7.075-.76 7.74-1.236l.427-2.28c-.95.428-3.466 1.046-7.075.95zm-1.52-5.795c1.092 0 1.52.523 1.52 1.52h-3.324c.047-.807.665-1.52 1.804-1.52zM11.1 52.097v16.53h8.642v-5.035c.665 0 1.948-.427 2.993 1.188l2.422 3.848h10.635l-4.748-7.505c-.665-.95-.902-1.9-3.371-2.138l6.079-6.888h-6.127l-4.653 5.843c-.523.617-.285 1.188-3.23 1.188v-7.03H11.1M208.664 54.376a1.548 1.548 0 0 0-1.134-.467c-.44 0-.817.156-1.128.467-.312.312-.469.69-.469 1.13 0 .444.156.824.465 1.137.311.313.689.471 1.132.471.443 0 .822-.158 1.134-.471.312-.315.47-.694.47-1.137 0-.442-.158-.819-.47-1.13zm-.159 2.111a1.32 1.32 0 0 1-.975.407c-.383 0-.708-.136-.974-.407-.267-.27-.4-.597-.4-.981 0-.381.134-.706.402-.975.269-.27.592-.406.972-.406.382 0 .707.136.975.406.267.269.402.594.402.975 0 .384-.135.711-.402.981z"/>
            <path d="M208.243 56.36a.335.335 0 0 1-.015-.093 1.906 1.906 0 0 1-.004-.13v-.13a.482.482 0 0 0-.097-.273.424.424 0 0 0-.302-.171.684.684 0 0 0 .255-.086c.114-.074.172-.19.172-.346 0-.221-.09-.37-.273-.446-.101-.041-.261-.062-.48-.062h-.614v1.757h.309v-.693h.244c.164 0 .28.019.345.057.11.065.166.2.166.403v.14l.007.056.003.02.005.017h.29l-.011-.02zm-.475-.928a.824.824 0 0 1-.295.039h-.28v-.638h.266c.171 0 .296.023.373.066.077.045.117.13.117.257 0 .136-.06.228-.181.276z"/>
        </g>
        <path stroke="#FFF" stroke-opacity=".01" stroke-width=".2" d="M.1.1h219.8v119.8H.1z"/>
    </g>
</svg>
