<?xml version="1.0" encoding="UTF-8"?>
<svg width="96px" height="26px" viewBox="0 0 96 26" version="1.1" xmlns="http://www.w3.org/2000/svg" xmlns:xlink="http://www.w3.org/1999/xlink">
    <!-- Generator: sketchtool 43.1 (39012) - http://www.bohemiancoding.com/sketch -->
    <title>85720F7C-763F-4EBF-B035-F4F48AC5D15A</title>
    <desc>Created with sketchtool.</desc>
    <defs></defs>
    <g id="Symbols" stroke="none" stroke-width="1" fill="none" fill-rule="evenodd">
        <g id="logo-99saves">
            <g>
                <g id="Group-2" transform="translate(33.000000, 10.000000)">
                    <path d="M1,0 L0,15.9495878 L33.7675271,16 L41.6666667,9.14470328 L41.4569005,6.45775656 L33.1760653,1.11022302e-16 L1,0 Z M35.4547267,7.98805224 C35.5183085,7.09774109 36.2648304,6.42920962 37.1225075,6.49521772 C37.9801846,6.56103802 38.6238721,7.33623406 38.5604711,8.22654521 C38.4970701,9.11695025 37.7502769,9.78529393 36.8926902,9.71947363 C36.0350131,9.65355943 35.3912352,8.87836339 35.4547267,7.98805224 L35.4547267,7.98805224 Z" id="Fill-4" fill="#28BA64"></path>
                    <path d="M33.6296296,9.3472688 C33.6296296,10.0065856 33.4026164,10.546886 32.9510588,10.9657095 C32.4425935,11.4397027 31.7290881,11.6754043 30.8059749,11.6754043 C29.9921096,11.6754043 29.1999704,11.4373716 28.4319027,10.9611768 L29.1913293,9.40904332 C29.7913899,9.81193754 30.3499733,10.0134494 30.8649811,10.0134494 C31.3035771,10.0134494 31.5217024,9.85545167 31.5217024,9.54191682 C31.5217024,9.37705525 31.4454141,9.25117509 31.2925906,9.16181572 C31.1944527,9.10457392 30.973982,9.03593556 30.6293268,8.95577113 C30.2430709,8.86654127 29.9898876,8.79790291 29.8721222,8.74752494 C29.4466112,8.57346842 29.1607152,8.30111659 29.0123357,7.93254155 C28.9316034,7.73102968 28.8901263,7.49066592 28.8901263,7.20911914 C28.8901263,6.66428597 29.0668979,6.18809116 29.4204411,5.78286582 C29.8786647,5.26095527 30.5813071,5 31.5326889,5 C32.1938542,5 32.8374904,5.132744 33.4594006,5.3983615 L32.7524376,6.81308875 C32.3618613,6.60251144 31.9864685,6.49722279 31.6286048,6.49722279 C31.2075378,6.49722279 30.9980536,6.65288941 30.9980536,6.96422265 C30.9980536,7.1061616 31.0831064,7.2206452 31.2533354,7.30754395 C31.3297472,7.34872697 31.5545384,7.40829988 31.9275858,7.48846431 C32.4775281,7.60748063 32.8789676,7.79979755 33.1386934,8.06295443 C33.4659431,8.39267757 33.6296296,8.82069602 33.6296296,9.3472688 L33.6296296,9.3472688 Z M26.5450634,7.49986087 L24.1753118,7.49986087 C24.2211094,7.19306035 24.3302338,6.95049498 24.5047834,6.76957462 C24.7230321,6.54293853 25.0088047,6.42845492 25.3623479,6.42845492 C26.0038856,6.42845492 26.3966839,6.78563341 26.5450634,7.49986087 L26.5450634,7.49986087 Z M28.5089317,8.74985605 L28.5089317,8.46584865 C28.5089317,7.72882807 28.3538862,7.08090786 28.0440421,6.52467813 C27.4899027,5.53563822 26.5690115,5.04118302 25.2816156,5.04118302 C24.2341945,5.04118302 23.4246497,5.35251626 22.8507592,5.97298113 C22.2768687,6.59564761 21.9888742,7.40363766 21.9888742,8.39500868 C21.9888742,9.23278519 22.217986,9.94014882 22.6784316,10.5216323 C23.2915772,11.2999654 24.2058024,11.6891319 25.4234526,11.6891319 C26.3813769,11.6891319 27.145124,11.4121179 27.7145705,10.8580898 C28.0309571,10.5514187 28.2688334,10.1187381 28.430298,9.56017722 L26.4010044,9.56017722 C26.1696707,9.94481105 25.8358785,10.1369985 25.401603,10.1369985 C24.5484825,10.1369985 24.1229716,9.67466082 24.1229716,8.74985605 L28.5089317,8.74985605 Z M22.414879,5.21977226 L19.3250793,11.4419043 L17.9242385,11.4419043 L14.8606089,5.21977226 L17.221596,5.21977226 L18.6420645,8.40640524 L20.0669769,5.21977226 L22.414879,5.21977226 Z M13.0020382,8.33090305 C13.0020382,8.72693343 12.8732863,9.06105979 12.6135604,9.33121001 C12.353958,9.60369135 12.0353494,9.73876646 11.6600801,9.73876646 C11.2433337,9.73876646 10.9028755,9.57390489 10.6410511,9.24431126 C10.4250244,8.97869375 10.318122,8.67422435 10.318122,8.33090305 C10.318122,7.98745223 10.4250244,7.68298283 10.6410511,7.41749484 C10.9073195,7.0877717 11.2476542,6.92291013 11.6600801,6.92291013 C12.0310289,6.92291013 12.3474155,7.06031635 12.6092399,7.33279769 C12.8710643,7.60748063 13.0020382,7.93940538 13.0020382,8.33090305 L13.0020382,8.33090305 Z M15.0444168,11.4419043 L15.0444168,5.21977226 L12.936613,5.21977226 L12.936613,5.83104218 C12.7118217,5.58601619 12.493573,5.40975806 12.2819902,5.3022678 C11.9110415,5.11901633 11.5182431,5.02745534 11.0970527,5.02745534 C10.3770047,5.02745534 9.73768898,5.27934517 9.18120408,5.78519693 C8.48078366,6.41938948 8.13168444,7.26869205 8.13168444,8.33090305 C8.13168444,9.37705525 8.47424113,10.2171629 9.15725598,10.8512259 C9.72892446,11.3824609 10.3835472,11.6479489 11.1166803,11.6479489 C11.5705833,11.6479489 11.9764667,11.5426603 12.3321084,11.332083 C12.5350501,11.2107355 12.7379918,11.0184186 12.936613,10.7551322 L12.936613,11.4419043 L15.0444168,11.4419043 Z M8.1977269,9.3472688 C8.1977269,10.0065856 7.97071365,10.546886 7.51903259,10.9657095 C7.01056736,11.4397027 6.29706189,11.6754043 5.37407219,11.6754043 C4.56020687,11.6754043 3.76806766,11.4373716 3,10.9611768 L3.75930314,9.40904332 C4.35948716,9.81193754 4.9180706,10.0134494 5.43295491,10.0134494 C5.87155092,10.0134494 6.08979966,9.85545167 6.08979966,9.54191682 C6.08979966,9.37705525 6.01338791,9.25117509 5.86068786,9.16181572 C5.76255,9.10457392 5.54207928,9.03593556 5.19730059,8.95577113 C4.81104478,8.86654127 4.55798488,8.79790291 4.440096,8.74752494 C4.01470848,8.57346842 3.72881251,8.30111659 3.580433,7.93254155 C3.49970072,7.73102968 3.45822358,7.49066592 3.45822358,7.20911914 C3.45822358,6.66428597 3.63499518,6.18809116 3.98853838,5.78286582 C4.44663852,5.26095527 5.14928094,5 6.10066272,5 C6.761828,5 7.40558769,5.132744 8.02749783,5.3983615 L7.32053488,6.81308875 C6.92995852,6.60251144 6.55456577,6.49722279 6.19670203,6.49722279 C5.77563505,6.49722279 5.56615083,6.65288941 5.56615083,6.96422265 C5.56615083,7.1061616 5.65120364,7.2206452 5.82143272,7.30754395 C5.89772102,7.34872697 6.12251228,7.40829988 6.49568305,7.48846431 C7.04550197,7.60748063 7.44706483,7.79979755 7.70666725,8.06295443 C8.03404035,8.39267757 8.1977269,8.82069602 8.1977269,9.3472688 L8.1977269,9.3472688 Z" id="Fill-6" fill="#FEFEFE"></path>
                    <path d="M62.2471979,11.4512 L60.1407178,11.4512 L60.1407178,8.38348926 C60.1407178,7.84808936 60.0884135,7.48442638 59.9815845,7.28771189 C59.8245484,6.99716976 59.5869588,6.85299875 59.2728865,6.85299875 C58.9240269,6.85299875 58.6557209,7.01088801 58.468215,7.32653712 C58.3352339,7.55068811 58.2698536,7.90309177 58.2698536,8.38348926 L58.2698536,11.4512 L56.1633735,11.4512 L56.1633735,8.38801887 C56.1633735,7.85494848 56.1197044,7.50733327 56.03471,7.34711449 C55.8645978,7.02680636 55.6029531,6.866717 55.249776,6.866717 C54.9226276,6.866717 54.667521,7.00402889 54.4843327,7.28072335 C54.4167319,7.37921001 54.3666481,7.51186288 54.3360551,7.68347039 C54.3076825,7.85494848 54.2925093,8.09061762 54.2925093,8.38801887 L54.2925093,11.4512 L52.1860292,11.4512 L52.1860292,5.23333962 L54.2925093,5.23333962 L54.2925093,6.00194974 C54.5410779,5.75256235 54.767812,5.56969552 54.9728348,5.452961 C55.3435289,5.24252826 55.7599892,5.13731189 56.2156778,5.13731189 C56.8022503,5.13731189 57.2907524,5.29287164 57.6788401,5.60399114 C57.8751045,5.76641001 58.0648308,5.99289052 58.2435781,6.28796225 C58.4050552,6.01113837 58.586023,5.791517 58.7866049,5.63142764 C59.2096033,5.29287164 59.6915673,5.12359364 60.2323736,5.12359364 C60.6749861,5.12359364 61.0697352,5.23566914 61.4163743,5.45982013 C61.7870684,5.70454848 62.029099,6.03637477 62.1446865,6.45724025 C62.2122872,6.71115725 62.2471979,7.02913587 62.2471979,7.40884661 L62.2471979,11.4512 Z M49.7072514,8.33767549 C49.7072514,7.93505787 49.5720498,7.59417236 49.3038671,7.31514839 C49.0356844,7.03366548 48.7107565,6.89415349 48.3313039,6.89415349 C47.8996704,6.89415349 47.548467,7.06343149 47.2759668,7.404317 C47.0557708,7.67881136 46.9467213,7.98993086 46.9467213,8.33767549 C46.9467213,8.69227925 47.0557708,9.00572826 47.2759668,9.28022263 C47.548467,9.62110814 47.8996704,9.79038613 48.3313039,9.79038613 C48.7150741,9.79038613 49.040002,9.65074473 49.308308,9.36939124 C49.5742703,9.09036726 49.7072514,8.74715224 49.7072514,8.33767549 L49.7072514,8.33767549 Z M51.8921878,8.33767549 C51.8921878,9.20244275 51.6217847,9.94141627 51.0811017,10.5589962 C50.4269284,11.3093585 49.5088899,11.6845396 48.3313039,11.6845396 C47.1473032,11.6845396 46.2270443,11.3093585 45.5728709,10.5589962 C45.032188,9.94141627 44.7617848,9.18406548 44.7617848,8.28513202 C44.7617848,7.47523775 45.0342851,6.75917111 45.579409,6.1324025 C46.2380232,5.37738122 47.1777729,5 48.3945871,5 C49.5132075,5 50.4073143,5.37738122 51.0745637,6.1324025 C51.6196876,6.75011189 51.8921878,7.48442638 51.8921878,8.33767549 L51.8921878,8.33767549 Z M44.709974,11.3162176 C44.2759967,11.5426981 43.8203081,11.6571031 43.342785,11.6571031 C42.2611724,11.6571031 41.4020996,11.2727334 40.7675404,10.5064528 C40.2551066,9.88421377 40,9.16581762 40,8.34919364 C40,7.52791064 40.2551066,6.80951449 40.7675404,6.1918051 C41.4020996,5.42552451 42.2611724,5.04115474 43.342785,5.04115474 C43.8290666,5.04115474 44.2847552,5.15788926 44.709974,5.39122889 L44.709974,7.26480501 C44.3392799,6.99031064 43.9794414,6.85299875 43.6262643,6.85299875 C43.2096806,6.85299875 42.8652619,6.99251074 42.5926383,7.27399364 C42.3201381,7.55534714 42.1849365,7.91215099 42.1849365,8.34919364 C42.1849365,8.78610688 42.3201381,9.14291074 42.5926383,9.42439364 C42.8652619,9.70574714 43.2096806,9.84525912 43.6262643,9.84525912 C43.9751238,9.84525912 44.3349623,9.71260626 44.709974,9.44717111 L44.709974,11.3162176 Z" id="Fill-8" fill="#FEFEFE"></path>
                    <path d="M38.8776168,8.26820084 C38.9581174,7.16674839 38.140824,6.20771111 37.0518267,6.12628122 C35.9629443,6.04461901 35.0149666,6.87169574 34.9342363,7.97314819 C34.8536209,9.07460065 35.6710292,10.0336379 36.7600264,10.115184 C37.8490237,10.1966139 38.7971162,9.36988562 38.8776168,8.26820084 M36.8993733,7.63879037 C37.1607879,7.65830759 37.3570624,7.88858488 37.3377252,8.15301731 C37.3183453,8.41744974 37.0907387,8.61598996 36.829324,8.59638638 C36.5679094,8.57682598 36.3716349,8.34659187 36.3910148,8.08215944 C36.410352,7.81772701 36.6379586,7.61918679 36.8993733,7.63879037 Z" id="Fill-11" fill="#FEFEFE"></path>
                </g>
                <path d="M31.2537064,9.2338667 C31.2537064,8.34116158 30.9404272,7.56010565 30.3049367,6.89978322 C29.6694462,6.23955848 28.9175573,5.91408595 28.0582959,5.91408595 C27.1990345,5.91408595 26.4472396,6.23955848 25.8117491,6.89978322 C25.1761646,7.56010565 24.8629794,8.34116158 24.8629794,9.2338667 C24.8629794,10.1265718 25.1761646,10.9077254 25.8117491,11.5679502 C26.4472396,12.2281749 27.1990345,12.5536474 28.0582959,12.5536474 C28.9175573,12.5536474 29.6694462,12.2281749 30.3049367,11.5679502 C30.9404272,10.9077254 31.2537064,10.1265718 31.2537064,9.2338667 M37.0000109,9.65233138 C37.0000109,11.2982534 36.6419775,12.8883996 35.9259107,14.4133928 C35.2993523,15.7432196 34.1895239,17.4262604 32.6052637,19.462808 L27.5033817,26 L20.6919091,26 L26.9752637,17.9656539 C24.8002672,17.6773978 23.0191262,16.9148035 21.6406788,15.6780665 C19.9938003,14.1995695 19.1703611,12.2095179 19.1703611,9.70810713 C19.1703611,6.70451924 20.0474865,4.3147577 21.7928994,2.53862713 C23.4756,0.846111364 25.5969103,0 28.1657623,0 C30.6808342,0 32.7663223,0.855488723 34.4222268,2.56646617 C36.1407496,4.36125377 37.0000109,6.72317628 37.0000109,9.65233138 M12.6833562,9.2338667 C12.6833562,8.34116158 12.370077,7.56010565 11.7345865,6.89978322 C11.099096,6.23955848 10.3472071,5.91408595 9.4879457,5.91408595 C8.62868434,5.91408595 7.87688941,6.23955848 7.24139892,6.89978322 C6.60590844,7.56010565 6.29262921,8.34116158 6.29262921,9.2338667 C6.29262921,10.1265718 6.60590844,10.9077254 7.24139892,11.5679502 C7.87688941,12.2281749 8.62868434,12.5536474 9.4879457,12.5536474 C10.3472071,12.5536474 11.099096,12.2281749 11.7345865,11.5679502 C12.370077,10.9077254 12.6833562,10.1265718 12.6833562,9.2338667 M18.4296607,9.65233138 C18.4296607,11.2982534 18.0716273,12.8883996 17.3555605,14.4133928 C16.7290961,15.7432196 15.6191737,17.4262604 14.0349135,19.462808 L8.93303154,26 L2.12165288,26 L8.40500748,17.9656539 C6.22991695,17.6773978 4.44877599,16.9148035 3.0704226,15.6780665 C1.42345014,14.1995695 0.60001092,12.2095179 0.60001092,9.70810713 C0.60001092,6.70451924 1.47713635,4.3147577 3.22254919,2.53862713 C4.90524977,0.846111364 7.02656008,0 9.59541214,0 C12.110484,0 14.1959721,0.855488723 15.8518766,2.56646617 C17.5703994,4.36125377 18.4296607,6.72317628 18.4296607,9.65233138" id="Fill-1" fill="#FEFEFE"></path>
            </g>
        </g>
    </g>
</svg>