<svg xmlns="http://www.w3.org/2000/svg" width="220" height="120" viewBox="0 0 220 120">
    <g fill="none" fill-rule="evenodd">
        <path fill="#ACB2C0" d="M135.397 60.562c7.366 1.157 10.838 3.05 10.838 9.206 0 5.261-3.84 9.996-12.942 9.996-6.366 0-11.258-2.157-11.416-2.262-.632-.368-.632-.841-.474-1.42l1.42-4.735c.158-.579.58-.895 1.315-.684.159.052 4.42 1.788 8.839 1.788 1.684 0 5.208.053 5.208-2.157 0-1.63-1.052-2.05-3.998-2.524l-2.946-.474c-5.945-.947-9.996-2.579-9.996-9.207 0-8.628 8.839-9.68 12.679-9.68 2.684 0 7.156.368 9.154 1.894 1.684 1.262 2.158 3.682.632 5.944-.21.316-.527.737-1 .737-.42 0-1.051-.368-2.63-.684-1.315-.263-3.209-.631-5.524-.631-3.157 0-5.682.157-5.682 2.052 0 1.578.894 1.946 3.472 2.367l3.05.474zM74.79 48.725c8.26 0 15.152 5.944 15.152 15.52 0 9.522-7.523 15.414-15.152 15.414-8.313 0-15.152-5.892-15.152-15.414 0-9.576 7.47-15.52 15.152-15.52zm0 23.043c4.418 0 6.733-3.157 6.733-7.523 0-4.42-2.315-7.63-6.733-7.63-4.472 0-6.734 3.21-6.734 7.63 0 4.366 2.262 7.523 6.734 7.523zm99.643-22.465c.527.263.737.526.737 1.263v16.151c0 7.944-5.262 13.206-13.627 13.206-8.47 0-13.468-4.841-13.468-12.785V52.67c0-3.524 3.472-3.945 4.736-3.945.946 0 1.999.157 2.84.578.526.263.738.526.738 1.263v14.678c0 2.21-.106 6.576 5.312 6.576 5.42 0 5.157-4.471 5.157-6.682V52.67c0-3.524 3.472-3.945 4.734-3.945.948 0 2 .157 2.841.578zm-68.55-.578c8.627 0 13.468 4.892 13.468 12.836v16.31c0 1-.317 1.315-1.21 1.315h-5.893c-.895 0-1.21-.316-1.21-1.315V63.402c0-2.209.315-6.576-5.104-6.576-5.418 0-5.523 4.472-5.523 6.682V77.87c0 1-.316 1.315-1.21 1.315H93.31c-.894 0-1.211-.316-1.211-1.315v-16.1c0-7.943 5.42-13.046 13.784-13.046zm-47.14 22.727c.579 1.315 1.789 3.261 2.684 4.471.631.843.473 1.264-.421 1.79-2.263 1.315-6.208 2.157-9.943 2.157-9.313 0-17.836-5.998-17.836-18.677 0-12.363 8.68-19.94 19.466-19.94 2.841 0 5.472.316 7.102 1.421 1.158.79 1.895 2.052 1.895 3.683 0 1.262-.421 2.473-1.158 3.525-.263.368-.579.736-1 .736-.315 0-.42-.052-.578-.105-2.052-.79-3.683-1-6.418-1-6.42 0-10.733 3.999-10.576 11.68.159 7.523 4.525 10.522 10.47 10.522 1.578 0 3.262-.42 4.735-1.052 1-.421 1.263.052 1.578.789zm126.897-30.146c.525.263.737.526.737 1.263v35.302c0 1-.317 1.315-1.211 1.315h-5.945c-.894 0-1.21-.316-1.21-1.315V44.674c0-3.526 3.42-3.947 4.735-3.947.947 0 2 .159 2.894.58z"/>
        <path stroke="#FFF" stroke-opacity=".01" stroke-width=".2" d="M.1.1h219.8v119.8H.1z"/>
    </g>
</svg>
