<svg xmlns="http://www.w3.org/2000/svg" width="220" height="120" viewBox="0 0 220 120">
    <g fill="none" fill-rule="evenodd">
        <path fill="#ACB2C0" d="M158.267 61.094h-5.789v3.296h-2.935v-8.732h8.571c1.5 0 2.733 1.263 2.733 2.709 0 1.402-1.14 2.727-2.58 2.727zm-89.376-.034c.309 0 .631.277.631.667 0 .386-.354.66-.631.66h-5.033V61.06h5.033zm77.015 3.33l-1.339-5.758-2.105 5.758h-2.927l-2.1-5.758-1.326 5.758h-2.974l2.135-7.895c.12-.416.602-.837 1.139-.837h1.743c.504 0 .957.309 1.106.69l1.74 4.805 1.735-4.713c.124-.387.603-.782 1.085-.782h1.791c.54 0 1.023.45 1.143.872l2.1 7.86h-2.946zm10.527-6.66h-3.955v1.29h3.955c.932 0 1.21-.088 1.21-.688 0-.575-.311-.603-1.21-.603m-87.842 1.264c.216 0 .639-.18.639-.627a.663.663 0 0 0-.639-.665H63.858v1.32l2.813-.028h1.92zm21.594 2.16H93.567l-1.702-2.936-1.68 2.936zm42.328-3.453h-6.93c-.72 0-1.226.633-1.32 1.17v.24h6.93l1.32 1.86h-7.223l-1.026-1.495v1.619c0 .753.718 1.292 1.38 1.292h6.869v2.004h-8.487c-1.435 0-2.583-1.098-2.583-2.64v-3.444c0-1.32.993-2.648 2.61-2.648h8.46V57.7zm-11.871.029h-3.573v6.66h-2.933v-6.66h-3.537v-2.071h10.043v2.07zm-14.001 6.66h-7.884v-2.003h7.55c.207 0 .598-.244.598-.659 0-.39-.332-.633-.655-.633h-4.715c-2.095 0-3.081-.844-3.143-2.61V58.155c.09-1.932 1.594-2.498 3.2-2.498h7.986v2.07h-7.44c-.385 0-.626.3-.626.639 0 .325.24.627.627.627h5.042c2.397 0 2.876 1.298 2.876 2.706 0 1.734-.99 2.69-3.416 2.69zm-11.188 0l-.898-1.555h-5.368l-.9 1.556h-2.94l4.681-8.097a1.3 1.3 0 0 1 1.109-.635h1.499c.512 0 .93.368 1.108.67l4.648 8.062h-2.94zm-13.64 0l-1.886-3.295h-3.151v3.296h-2.903v-8.732h8.779c1.466 0 2.695 1.263 2.695 2.675 0 1.376-1.015 2.637-2.361 2.727l1.922 3.33h-3.094zm-11.507.038h-9.392v-8.793h9.145c1.533 0 2.31 1.287 2.31 2.395 0 .603-.264 1.412-1.078 1.93a2.295 2.295 0 0 1 1.381 2.128c0 1.287-1.08 2.34-2.366 2.34zm81.836-33.552c-2.547-2.559-7.565-4.64-11.186-4.64H53.937c-3.298 0-5.982 2.687-5.982 5.99l.005.42v29.741c0 3.62 2.076 8.644 4.628 11.2l15.56 15.594c2.553 2.556 7.571 4.636 11.186 4.636h87.024c3.297 0 5.98-2.684 5.98-5.985V57.669c-.004-3.62-2.084-8.648-4.632-11.208l-15.564-15.586zM80.947 57.73h-4.172v1.265h4.172c.934 0 1.19-.062 1.19-.662 0-.603-.256-.603-1.19-.603"/>
        <path stroke="#FFF" stroke-opacity=".01" stroke-width=".2" d="M.1.1h219.8v119.8H.1z"/>
    </g>
</svg>
