<?xml version="1.0" encoding="UTF-8"?>
<svg width="28px" height="28px" viewBox="0 0 28 28" version="1.1" xmlns="http://www.w3.org/2000/svg" xmlns:xlink="http://www.w3.org/1999/xlink">
    <!-- Generator: sketchtool 43.1 (39012) - http://www.bohemiancoding.com/sketch -->
    <title>5B3634D9-065E-4520-B970-3E8ADF6EF246</title>
    <desc>Created with sketchtool.</desc>
    <defs></defs>
    <g id="Symbols" stroke="none" stroke-width="1" fill="none" fill-rule="evenodd">
        <g id="desk-/-footer" transform="translate(-967.000000, -30.000000)" fill="#1D2028">
            <g id="post-instagram">
                <g transform="translate(967.000000, 30.000000)">
                    <path d="M25.2,0 L2.8,0 C1.26,0 0,1.26 0,2.8 L0,25.2 C0,26.74 1.26,28 2.8,28 L25.2,28 C26.74,28 28,26.74 28,25.2 L28,2.8 C28,1.26 26.74,0 25.2,0 L25.2,0 Z M14,8.4 C17.08,8.4 19.6,10.92 19.6,14 C19.6,17.08 17.08,19.6 14,19.6 C10.92,19.6 8.4,17.08 8.4,14 C8.4,10.92 10.92,8.4 14,8.4 L14,8.4 Z M3.5,25.2 C3.08,25.2 2.8,24.92 2.8,24.5 L2.8,12.6 L5.74,12.6 C5.6,13.02 5.6,13.58 5.6,14 C5.6,18.62 9.38,22.4 14,22.4 C18.62,22.4 22.4,18.62 22.4,14 C22.4,13.58 22.4,13.02 22.26,12.6 L25.2,12.6 L25.2,24.5 C25.2,24.92 24.92,25.2 24.5,25.2 L3.5,25.2 L3.5,25.2 Z M25.2,6.3 C25.2,6.72 24.92,7 24.5,7 L21.7,7 C21.28,7 21,6.72 21,6.3 L21,3.5 C21,3.08 21.28,2.8 21.7,2.8 L24.5,2.8 C24.92,2.8 25.2,3.08 25.2,3.5 L25.2,6.3 L25.2,6.3 Z" id="Shape"></path>
                </g>
            </g>
        </g>
    </g>
</svg>