<svg xmlns="http://www.w3.org/2000/svg" width="22" height="22" viewBox="0 0 22 22">
    <path fill="#FFF" fill-rule="evenodd" d="M19.8 0H2.2C.99 0 0 .99 0 2.2v17.6C0 21.01.99 22 2.2 22h17.6c1.21 0 2.2-.99 2.2-2.2V2.2C22 .99 21.01 0 19.8 0zM11 6.6c2.42 0 4.4 1.98 4.4 4.4 0 2.42-1.98 4.4-4.4 4.4-2.42 0-4.4-1.98-4.4-4.4 0-2.42 1.98-4.4 4.4-4.4zM2.75 19.8c-.33 0-.55-.22-.55-.55V9.9h2.31c-.11.33-.11.77-.11 1.1 0 3.63 2.97 6.6 6.6 6.6 3.63 0 6.6-2.97 6.6-6.6 0-.33 0-.77-.11-1.1h2.31v9.35c0 .33-.22.55-.55.55H2.75zM19.8 4.95c0 .33-.22.55-.55.55h-2.2c-.33 0-.55-.22-.55-.55v-2.2c0-.33.22-.55.55-.55h2.2c.33 0 .55.22.55.55v2.2z"/>
</svg>
