<?xml version="1.0" encoding="UTF-8"?>
<svg width="28px" height="28px" viewBox="0 0 28 28" version="1.1" xmlns="http://www.w3.org/2000/svg" xmlns:xlink="http://www.w3.org/1999/xlink">
    <!-- Generator: sketchtool 43.1 (39012) - http://www.bohemiancoding.com/sketch -->
    <title>F0CB7764-3A80-40CD-86CB-728B2A003196</title>
    <desc>Created with sketchtool.</desc>
    <defs></defs>
    <g id="Symbols" stroke="none" stroke-width="1" fill="none" fill-rule="evenodd">
        <g id="desk-/-footer" transform="translate(-905.000000, -30.000000)" fill="#1D2028">
            <g id="post-twitter">
                <g transform="translate(905.000000, 30.000000)">
                    <path d="M25.2,0 L2.8,0 C1.26,0 0,1.26 0,2.8 L0,25.2 C0,26.74 1.26,28 2.8,28 L25.2,28 C26.74,28 28,26.74 28,25.2 L28,2.8 C28,1.26 26.74,0 25.2,0 L25.2,0 Z M21.98,10.22 C21.84,16.66 17.78,21.14 11.62,21.42 C9.1,21.56 7.28,20.72 5.6,19.74 C7.42,20.02 9.8,19.32 11.06,18.2 C9.24,18.06 8.12,17.08 7.56,15.54 C8.12,15.68 8.68,15.54 9.1,15.54 C7.42,14.98 6.3,14 6.16,11.76 C6.58,12.04 7.14,12.18 7.7,12.18 C6.44,11.48 5.6,8.82 6.58,7.14 C8.4,9.1 10.64,10.78 14.28,11.06 C13.3,7.14 18.62,5.04 20.72,7.7 C21.7,7.56 22.4,7.14 23.1,6.86 C22.82,7.84 22.26,8.4 21.56,8.96 C22.26,8.82 22.96,8.68 23.52,8.4 C23.38,9.1 22.68,9.66 21.98,10.22 L21.98,10.22 Z" id="Shape"></path>
                </g>
            </g>
        </g>
    </g>
</svg>