<svg xmlns="http://www.w3.org/2000/svg" width="22" height="22" viewBox="0 0 22 22">
    <path fill="#FFF" fill-rule="evenodd" d="M19.8 0H2.2C.99 0 0 .99 0 2.2v17.6C0 21.01.99 22 2.2 22h17.6c1.21 0 2.2-.99 2.2-2.2V2.2C22 .99 21.01 0 19.8 0zm-2.53 8.03c-.11 5.06-3.3 8.58-8.14 8.8-1.98.11-3.41-.55-4.73-1.32 1.43.22 3.3-.33 4.29-1.21-1.43-.11-2.31-.88-2.75-2.09.44.11.88 0 1.21 0-1.32-.44-2.2-1.21-2.31-2.97.33.22.77.33 1.21.33-.99-.55-1.65-2.64-.88-3.96 1.43 1.54 3.19 2.86 6.05 3.08-.77-3.08 3.41-4.73 5.06-2.64.77-.11 1.32-.44 1.87-.66-.22.77-.66 1.21-1.21 1.65.55-.11 1.1-.22 1.54-.44-.11.55-.66.99-1.21 1.43z"/>
</svg>
